<svg width="400" height="400" xmlns="http://www.w3.org/2000/svg">
    <path d="M178.7.273c-2.145.086-3.9.329-3.9.541 0 .216-1.413.386-3.2.386-1.867 0-3.2.167-3.2.4 0 .22-.9.4-2 .4s-2 .18-2 .4c0 .22-.99.4-2.2.4-1.21 0-2.2.18-2.2.4 0 .22-.72.4-1.6.4-.88 0-1.6.18-1.6.4 0 .22-.9.4-2 .4s-2 .18-2 .4c0 .22-.72.4-1.6.4-.88 0-1.6.18-1.6.4 0 .22-.72.4-1.6.4-.88 0-1.6.18-1.6.4 0 .22-.54.4-1.2.4-.66 0-1.2.18-1.2.4 0 .22-.63.4-1.4.4-.77 0-1.4.18-1.4.4 0 .22-.54.4-1.2.4-.66 0-1.2.18-1.2.4 0 .22-.54.4-1.2.4-.66 0-1.2.162-1.2.361 0 .198-1.08.486-2.4.639-1.32.153-2.4.441-2.4.639 0 .199-.54.361-1.2.361-.66 0-1.201.135-1.203.3-.004.406-1.983 1.3-2.877 1.3-.396 0-.72.18-.72.4 0 .22-.36.4-.8.4-.44 0-.8.18-.8.4 0 .22-.54.4-1.2.4-.66 0-1.2.18-1.2.4 0 .22-.36.4-.8.4-.44 0-.8.18-.8.4 0 .22-.36.4-.8.4-.44 0-.8.18-.8.4 0 .22-.36.4-.8.4-.44 0-.8.18-.8.4 0 .22-.54.4-1.2.4-.66 0-1.2.18-1.2.4 0 .22-.36.4-.8.4-.44 0-.8.18-.8.4 0 .22-.36.4-.8.4-.44 0-.8.18-.8.4 0 .22-.27.4-.6.4-.33 0-.6.18-.6.4 0 .22-.36.4-.8.4-.44 0-.8.18-.8.4 0 .22-.36.4-.8.4-.44 0-.8.18-.8.4 0 .22-.36.4-.8.4-.44 0-.8.18-.8.4 0 .22-.32.4-.712.4-.391 0-.971.36-1.288.8-.317.44-.897.8-1.288.8-.392 0-.712.18-.712.4 0 .22-.36.4-.8.4-.44 0-.8.18-.8.4 0 .22-.36.4-.8.4-.44 0-.8.146-.8.325 0 .179-.906.721-2.014 1.205-1.108.483-2.117 1.147-2.243 1.475-.126.327-.53.595-.897.595-.368 0-.929.36-1.246.8-.317.44-.857.8-1.2.8-.343 0-.883.36-1.2.8-.317.44-.857.8-1.2.8-.343 0-.883.36-1.2.8-.317.44-.857.8-1.2.8-.343 0-.883.36-1.2.8-.317.44-.825.8-1.128.8-.303 0-1.055.54-1.672 1.2-.617.66-1.337 1.2-1.6 1.2-.263 0-.983.54-1.6 1.2-.617.66-1.235 1.2-1.374 1.2s-.883.63-1.653 1.4c-.77.77-1.674 1.4-2.008 1.4-.335 0-1.669 1.08-2.965 2.4-1.296 1.32-2.553 2.4-2.793 2.4-.241 0-2.049 1.665-4.019 3.7-4.494 4.642-6.446 6.594-11.088 11.088-2.035 1.97-3.7 3.778-3.7 4.019 0 .24-1.08 1.497-2.4 2.793-1.32 1.296-2.4 2.63-2.4 2.965 0 .334-.63 1.238-1.4 2.008-.77.77-1.4 1.514-1.4 1.653s-.54.757-1.2 1.374c-.66.617-1.2 1.337-1.2 1.6 0 .263-.54.983-1.2 1.6-.66.617-1.2 1.369-1.2 1.672 0 .303-.36.811-.8 1.128-.44.317-.8.857-.8 1.2 0 .343-.36.883-.8 1.2-.44.317-.8.857-.8 1.2 0 .343-.36.883-.8 1.2-.44.317-.8.857-.8 1.2 0 .343-.36.883-.8 1.2-.44.317-.8.878-.8 1.246 0 .367-.268.771-.595.897-.328.126-.992 1.135-1.475 2.243C27.446 97.094 26.904 98 26.725 98c-.179 0-.325.36-.325.8 0 .44-.18.8-.4.8-.22 0-.4.36-.4.8 0 .44-.18.8-.4.8-.22 0-.4.32-.4.712 0 .391-.36.971-.8 1.288-.44.317-.8.897-.8 1.288 0 .392-.18.712-.4.712-.22 0-.4.36-.4.8 0 .44-.18.8-.4.8-.22 0-.4.36-.4.8 0 .44-.18.8-.4.8-.22 0-.4.36-.4.8 0 .44-.18.8-.4.8-.22 0-.4.27-.4.6 0 .33-.18.6-.4.6-.22 0-.4.36-.4.8 0 .44-.18.8-.4.8-.22 0-.4.36-.4.8 0 .44-.18.8-.4.8-.22 0-.4.54-.4 1.2 0 .66-.18 1.2-.4 1.2-.22 0-.4.36-.4.8 0 .44-.18.8-.4.8-.22 0-.4.36-.4.8 0 .44-.18.8-.4.8-.22 0-.4.36-.4.8 0 .44-.18.8-.4.8-.22 0-.4.54-.4 1.2 0 .66-.18 1.2-.4 1.2-.22 0-.4.36-.4.8 0 .44-.18.8-.4.8-.22 0-.4.324-.4.72 0 .894-.894 2.873-1.3 2.877-.165.002-.3.543-.3 1.203s-.162 1.2-.361 1.2c-.198 0-.486 1.08-.639 2.4-.153 1.32-.441 2.4-.639 2.4-.199 0-.361.54-.361 1.2 0 .66-.18 1.2-.4 1.2-.22 0-.4.54-.4 1.2 0 .66-.18 1.2-.4 1.2-.22 0-.4.63-.4 1.4 0 .77-.18 1.4-.4 1.4-.22 0-.4.54-.4 1.2 0 .66-.18 1.2-.4 1.2-.22 0-.4.72-.4 1.6 0 .88-.18 1.6-.4 1.6-.22 0-.4.72-.4 1.6 0 .88-.18 1.6-.4 1.6-.22 0-.4.9-.4 2s-.18 2-.4 2c-.22 0-.4.72-.4 1.6 0 .88-.18 1.6-.4 1.6-.22 0-.4.99-.4 2.2 0 1.21-.18 2.2-.4 2.2-.22 0-.4.9-.4 2s-.18 2-.4 2c-.233 0-.4 1.322-.4 3.167 0 2.177-.156 3.218-.5 3.333-.732.244-.732 49.956 0 50.2.344.115.5 1.156.5 3.333 0 1.845.167 3.167.4 3.167.22 0 .4.9.4 2s.18 2 .4 2c.222 0 .4 1.067.4 2.4s.178 2.4.4 2.4c.22 0 .4.63.4 1.4 0 .77.18 1.4.4 1.4.22 0 .4.9.4 2s.18 2 .4 2c.22 0 .4.72.4 1.6 0 .88.18 1.6.4 1.6.22 0 .4.72.4 1.6 0 .88.18 1.6.4 1.6.22 0 .4.54.4 1.2 0 .66.18 1.2.4 1.2.22 0 .4.63.4 1.4 0 .77.18 1.4.4 1.4.22 0 .4.54.4 1.2 0 .66.18 1.2.4 1.2.22 0 .4.54.4 1.2 0 .66.162 1.2.361 1.2.198 0 .486 1.08.639 2.4.153 1.32.441 2.4.639 2.4.199 0 .361.54.361 1.2 0 .66.18 1.2.4 1.2.22 0 .4.36.4.8 0 .44.18.8.4.8.22 0 .4.54.4 1.2 0 .66.18 1.2.4 1.2.22 0 .4.27.4.6 0 .33.18.6.4.6.22 0 .4.54.4 1.2 0 .66.18 1.2.4 1.2.22 0 .4.36.4.8 0 .44.18.8.4.8.22 0 .4.36.4.8 0 .44.18.8.4.8.22 0 .4.36.4.8 0 .44.18.8.4.8.22 0 .4.54.4 1.2 0 .66.18 1.2.4 1.2.22 0 .4.36.4.8 0 .44.18.8.4.8.22 0 .4.36.4.8 0 .44.18.8.4.8.22 0 .4.36.4.8 0 .44.18.8.4.8.22 0 .4.27.4.6 0 .33.18.6.4.6.22 0 .4.36.4.8 0 .44.18.8.4.8.22 0 .4.36.4.8 0 .44.18.8.4.8.22 0 .4.32.4.712 0 .391.36.971.8 1.288.44.317.8.897.8 1.288 0 .392.18.712.4.712.22 0 .4.36.4.8 0 .44.18.8.4.8.22 0 .4.283.4.629 0 .345.27.898.6 1.228.33.33.6.947.6 1.372 0 .424.18.771.4.771.22 0 .4.32.4.712 0 .391.36.971.8 1.288.44.317.8.885.8 1.261 0 .377.36.799.8.939.44.14.8.562.8.939 0 .376.36.944.8 1.261.44.317.8.857.8 1.2 0 .343.36.883.8 1.2.44.317.8.857.8 1.2 0 .343.36.883.8 1.2.44.317.8.825.8 1.128 0 .303.54 1.055 1.2 1.672.66.617 1.2 1.337 1.2 1.6 0 .263.54.983 1.2 1.6.66.617 1.2 1.343 1.2 1.614 0 .529 1.507 1.986 2.054 1.986.182 0 .453.489.603 1.086.15.597 1.324 2.117 2.608 3.378 1.284 1.26 2.335 2.487 2.335 2.727 0 .239 2.025 2.409 4.5 4.823 5.626 5.486 5.918 5.778 10.285 10.286 1.971 2.035 3.781 3.7 4.022 3.7.24 0 1.497 1.08 2.793 2.4 1.296 1.32 2.552 2.4 2.791 2.4.24 0 1.066.63 1.836 1.4.77.77 1.591 1.4 1.826 1.4.234 0 .93.54 1.547 1.2.617.66 1.337 1.2 1.6 1.2.263 0 .983.54 1.6 1.2.617.66 1.369 1.2 1.672 1.2.303 0 .811.36 1.128.8.317.44.857.8 1.2.8.343 0 .883.36 1.2.8.317.44.857.8 1.2.8.343 0 .883.36 1.2.8.317.44.857.8 1.2.8.343 0 .883.36 1.2.8.317.44.885.8 1.261.8.377 0 .799.36.939.8.14.44.602.8 1.027.8.425 0 .773.18.773.4 0 .22.32.4.712.4.391 0 .971.36 1.288.8.317.44.897.8 1.288.8.392 0 .712.164.712.365 0 .201.688.481 1.528.623.841.142 1.781.608 2.089 1.035.308.427.88.777 1.271.777.392 0 .712.18.712.4 0 .22.36.4.8.4.44 0 .8.18.8.4 0 .22.36.4.8.4.44 0 .8.18.8.4 0 .22.36.4.8.4.44 0 .8.18.8.4 0 .22.27.4.6.4.33 0 .6.18.6.4 0 .22.36.4.8.4.44 0 .8.18.8.4 0 .22.36.4.8.4.44 0 .8.18.8.4 0 .22.54.4 1.2.4.66 0 1.2.18 1.2.4 0 .22.36.4.8.4.44 0 .8.18.8.4 0 .22.36.4.8.4.44 0 .8.18.8.4 0 .22.36.4.8.4.44 0 .8.18.8.4 0 .22.54.4 1.2.4.66 0 1.2.18 1.2.4 0 .22.36.4.8.4.44 0 .8.18.8.4 0 .22.45.4 1 .4s1 .18 1 .4c0 .22.36.4.8.4.44 0 .8.18.8.4 0 .22.54.4 1.2.4.66 0 1.2.18 1.2.4 0 .22.54.4 1.2.4.66 0 1.2.18 1.2.4 0 .22.54.4 1.2.4.66 0 1.2.162 1.2.361 0 .198 1.08.486 2.4.639 1.32.153 2.4.441 2.4.639 0 .199.63.361 1.4.361.77 0 1.4.18 1.4.4 0 .22.54.4 1.2.4.66 0 1.2.18 1.2.4 0 .22.72.4 1.6.4.88 0 1.6.18 1.6.4 0 .22.72.4 1.6.4.88 0 1.6.18 1.6.4 0 .22.9.4 2 .4s2 .18 2 .4c0 .22.72.4 1.6.4.88 0 1.6.18 1.6.4 0 .22.99.4 2.2.4 1.21 0 2.2.18 2.2.4 0 .22.9.4 2 .4s2 .18 2 .4c0 .233 1.322.4 3.167.4 2.177 0 3.218.156 3.333.5.244.732 49.956.732 50.2 0 .115-.344 1.156-.5 3.333-.5 1.845 0 3.167-.167 3.167-.4 0-.22.9-.4 2-.4s2-.18 2-.4c0-.222 1.067-.4 2.4-.4s2.4-.178 2.4-.4c0-.22.63-.4 1.4-.4.77 0 1.4-.18 1.4-.4 0-.22.9-.4 2-.4s2-.18 2-.4c0-.22.72-.4 1.6-.4.88 0 1.6-.18 1.6-.4 0-.22.72-.4 1.6-.4.88 0 1.6-.18 1.6-.4 0-.22.54-.4 1.2-.4.66 0 1.2-.18 1.2-.4 0-.22.63-.4 1.4-.4.77 0 1.4-.162 1.4-.361 0-.198 1.08-.486 2.4-.639 1.32-.153 2.4-.441 2.4-.639 0-.199.54-.361 1.2-.361.66 0 1.2-.18 1.2-.4 0-.22.54-.4 1.2-.4.66 0 1.2-.18 1.2-.4 0-.22.54-.4 1.2-.4.66 0 1.2-.18 1.2-.4 0-.22.36-.4.8-.4.44 0 .8-.18.8-.4 0-.22.54-.4 1.2-.4.66 0 1.2-.18 1.2-.4 0-.22.27-.4.6-.4.33 0 .6-.18.6-.4 0-.22.54-.4 1.2-.4.66 0 1.2-.18 1.2-.4 0-.22.36-.4.8-.4.44 0 .8-.18.8-.4 0-.22.36-.4.8-.4.44 0 .8-.18.8-.4 0-.22.36-.4.8-.4.44 0 .8-.18.8-.4 0-.22.54-.4 1.2-.4.66 0 1.2-.18 1.2-.4 0-.22.36-.4.8-.4.44 0 .8-.18.8-.4 0-.22.36-.4.8-.4.44 0 .8-.18.8-.4 0-.22.36-.4.8-.4.44 0 .8-.18.8-.4 0-.22.27-.4.6-.4.33 0 .6-.18.6-.4 0-.22.36-.4.8-.4.44 0 .8-.18.8-.4 0-.22.36-.4.8-.4.44 0 .8-.18.8-.4 0-.22.32-.4.712-.4.391 0 .963-.35 1.271-.777.308-.427 1.248-.893 2.089-1.035.84-.142 1.528-.422 1.528-.623s.32-.365.712-.365c.391 0 .971-.36 1.288-.8.317-.44.897-.8 1.288-.8.392 0 .712-.18.712-.4 0-.22.32-.4.712-.4.391 0 .971-.36 1.288-.8.317-.44.885-.8 1.261-.8.377 0 .799-.36.939-.8.14-.44.562-.8.939-.8.376 0 .944-.36 1.261-.8.317-.44.857-.8 1.2-.8.343 0 .883-.36 1.2-.8.317-.44.857-.8 1.2-.8.343 0 .883-.36 1.2-.8.317-.44.825-.8 1.128-.8.303 0 1.055-.54 1.672-1.2.617-.66 1.337-1.2 1.6-1.2.263 0 .983-.54 1.6-1.2.617-.66 1.386-1.2 1.71-1.2.323 0 1.126-.63 1.784-1.4.658-.77 1.411-1.4 1.673-1.4.263 0 1.537-1.08 2.833-2.4 1.296-1.32 2.551-2.4 2.791-2.4.239 0 2.415-2.025 4.835-4.5 5.284-5.403 4.071-4.19 9.474-9.474 2.475-2.42 4.5-4.596 4.5-4.835 0-.24 1.08-1.495 2.4-2.791 1.32-1.296 2.4-2.57 2.4-2.833 0-.262.63-1.015 1.4-1.673.77-.658 1.4-1.461 1.4-1.784 0-.324.54-1.093 1.2-1.71.66-.617 1.2-1.337 1.2-1.6 0-.263.54-.983 1.2-1.6.66-.617 1.2-1.369 1.2-1.672 0-.303.36-.811.8-1.128.44-.317.8-.857.8-1.2 0-.343.36-.883.8-1.2.44-.317.8-.857.8-1.2 0-.343.36-.883.8-1.2.44-.317.8-.885.8-1.261 0-.377.36-.799.8-.939.44-.14.8-.562.8-.939 0-.376.36-.944.8-1.261.44-.317.8-.897.8-1.288 0-.392.18-.712.4-.712.22 0 .4-.32.4-.712 0-.391.36-.971.8-1.288.44-.317.8-.897.8-1.288 0-.392.164-.712.365-.712.201 0 .481-.688.623-1.528.142-.841.608-1.781 1.035-2.089.427-.308.777-.88.777-1.271 0-.392.18-.712.4-.712.22 0 .4-.36.4-.8 0-.44.18-.8.4-.8.22 0 .4-.36.4-.8 0-.44.18-.8.4-.8.22 0 .4-.27.4-.6 0-.33.18-.6.4-.6.22 0 .4-.36.4-.8 0-.44.18-.8.4-.8.22 0 .4-.36.4-.8 0-.44.18-.8.4-.8.22 0 .4-.36.4-.8 0-.44.18-.8.4-.8.22 0 .4-.54.4-1.2 0-.66.18-1.2.4-1.2.22 0 .4-.36.4-.8 0-.44.18-.8.4-.8.22 0 .4-.36.4-.8 0-.44.18-.8.4-.8.22 0 .4-.36.4-.8 0-.44.18-.8.4-.8.22 0 .4-.54.4-1.2 0-.66.18-1.2.4-1.2.22 0 .4-.27.4-.6 0-.33.18-.6.4-.6.22 0 .4-.54.4-1.2 0-.66.18-1.2.4-1.2.22 0 .4-.36.4-.8 0-.44.18-.8.4-.8.22 0 .4-.54.4-1.2 0-.66.18-1.2.4-1.2.22 0 .4-.54.4-1.2 0-.66.18-1.2.4-1.2.22 0 .4-.54.4-1.2 0-.66.162-1.2.361-1.2.198 0 .486-1.08.639-2.4.153-1.32.441-2.4.639-2.4.199 0 .361-.63.361-1.4 0-.77.18-1.4.4-1.4.22 0 .4-.54.4-1.2 0-.66.18-1.2.4-1.2.22 0 .4-.72.4-1.6 0-.88.18-1.6.4-1.6.22 0 .4-.72.4-1.6 0-.88.18-1.6.4-1.6.22 0 .4-.9.4-2s.18-2 .4-2c.22 0 .4-.63.4-1.4 0-.77.18-1.4.4-1.4.222 0 .4-1.067.4-2.4s.178-2.4.4-2.4c.22 0 .4-.9.4-2s.18-2 .4-2c.233 0 .4-1.322.4-3.167 0-2.177.156-3.218.5-3.333.393-.131.5-5.509.5-25.1s-.107-24.969-.5-25.1c-.344-.115-.5-1.156-.5-3.333 0-1.845-.167-3.167-.4-3.167-.22 0-.4-.9-.4-2s-.18-2-.4-2c-.22 0-.4-.99-.4-2.2 0-1.21-.18-2.2-.4-2.2-.22 0-.4-.72-.4-1.6 0-.88-.18-1.6-.4-1.6-.22 0-.4-.9-.4-2s-.18-2-.4-2c-.22 0-.4-.72-.4-1.6 0-.88-.18-1.6-.4-1.6-.22 0-.4-.72-.4-1.6 0-.88-.18-1.6-.4-1.6-.22 0-.4-.54-.4-1.2 0-.66-.18-1.2-.4-1.2-.22 0-.4-.63-.4-1.4 0-.77-.162-1.4-.361-1.4-.198 0-.486-1.08-.639-2.4-.153-1.32-.441-2.4-.639-2.4-.199 0-.361-.54-.361-1.2 0-.66-.18-1.2-.4-1.2-.22 0-.4-.54-.4-1.2 0-.66-.18-1.2-.4-1.2-.22 0-.4-.54-.4-1.2 0-.66-.18-1.2-.4-1.2-.22 0-.4-.36-.4-.8 0-.44-.18-.8-.4-.8-.22 0-.4-.45-.4-1s-.18-1-.4-1c-.22 0-.4-.36-.4-.8 0-.44-.18-.8-.4-.8-.22 0-.4-.54-.4-1.2 0-.66-.18-1.2-.4-1.2-.22 0-.4-.36-.4-.8 0-.44-.18-.8-.4-.8-.22 0-.4-.36-.4-.8 0-.44-.18-.8-.4-.8-.22 0-.4-.36-.4-.8 0-.44-.18-.8-.4-.8-.22 0-.4-.54-.4-1.2 0-.66-.18-1.2-.4-1.2-.22 0-.4-.36-.4-.8 0-.44-.18-.8-.4-.8-.22 0-.4-.36-.4-.8 0-.44-.18-.8-.4-.8-.22 0-.4-.27-.4-.6 0-.33-.18-.6-.4-.6-.22 0-.4-.36-.4-.8 0-.44-.18-.8-.4-.8-.22 0-.4-.36-.4-.8 0-.44-.18-.8-.4-.8-.22 0-.4-.36-.4-.8 0-.44-.18-.8-.4-.8-.22 0-.4-.32-.4-.712 0-.391-.35-.963-.777-1.271-.427-.308-.893-1.248-1.035-2.089-.142-.84-.422-1.528-.623-1.528s-.365-.32-.365-.712c0-.391-.36-.971-.8-1.288-.44-.317-.8-.897-.8-1.288 0-.392-.18-.712-.4-.712-.22 0-.4-.348-.4-.773 0-.425-.36-.887-.8-1.027-.44-.14-.8-.562-.8-.939 0-.376-.36-.944-.8-1.261-.44-.317-.8-.857-.8-1.2 0-.343-.36-.883-.8-1.2-.44-.317-.8-.857-.8-1.2 0-.343-.36-.883-.8-1.2-.44-.317-.8-.857-.8-1.2 0-.343-.36-.883-.8-1.2-.44-.317-.8-.825-.8-1.128 0-.303-.54-1.055-1.2-1.672-.66-.617-1.2-1.337-1.2-1.6 0-.263-.54-.983-1.2-1.6-.66-.617-1.2-1.313-1.2-1.547 0-.235-.63-1.056-1.4-1.826-.77-.77-1.4-1.596-1.4-1.836 0-.239-1.08-1.495-2.4-2.791-1.32-1.296-2.4-2.553-2.4-2.793 0-.241-1.665-2.051-3.7-4.022-4.508-4.367-4.8-4.659-10.286-10.285-2.414-2.475-4.584-4.5-4.823-4.5-.24 0-1.467-1.051-2.727-2.335-1.261-1.284-2.781-2.458-3.378-2.608-.597-.15-1.086-.421-1.086-.603 0-.547-1.457-2.054-1.986-2.054-.271 0-.997-.54-1.614-1.2-.617-.66-1.337-1.2-1.6-1.2-.263 0-.983-.54-1.6-1.2-.617-.66-1.369-1.2-1.672-1.2-.303 0-.811-.36-1.128-.8-.317-.44-.857-.8-1.2-.8-.343 0-.883-.36-1.2-.8-.317-.44-.857-.8-1.2-.8-.343 0-.883-.36-1.2-.8-.317-.44-.885-.8-1.261-.8-.377 0-.799-.36-.939-.8-.14-.44-.562-.8-.939-.8-.376 0-.944-.36-1.261-.8-.317-.44-.897-.8-1.288-.8-.392 0-.712-.18-.712-.4 0-.22-.347-.4-.771-.4-.425 0-1.042-.27-1.372-.6-.33-.33-.883-.6-1.228-.6-.346 0-.629-.18-.629-.4 0-.22-.36-.4-.8-.4-.44 0-.8-.18-.8-.4 0-.22-.32-.4-.712-.4-.391 0-.971-.36-1.288-.8-.317-.44-.897-.8-1.288-.8-.392 0-.712-.18-.712-.4 0-.22-.36-.4-.8-.4-.44 0-.8-.18-.8-.4 0-.22-.36-.4-.8-.4-.44 0-.8-.18-.8-.4 0-.22-.27-.4-.6-.4-.33 0-.6-.18-.6-.4 0-.22-.36-.4-.8-.4-.44 0-.8-.18-.8-.4 0-.22-.36-.4-.8-.4-.44 0-.8-.18-.8-.4 0-.22-.36-.4-.8-.4-.44 0-.8-.18-.8-.4 0-.22-.54-.4-1.2-.4-.66 0-1.2-.18-1.2-.4 0-.22-.36-.4-.8-.4-.44 0-.8-.18-.8-.4 0-.22-.36-.4-.8-.4-.44 0-.8-.18-.8-.4 0-.22-.36-.4-.8-.4-.44 0-.8-.18-.8-.4 0-.22-.54-.4-1.2-.4-.66 0-1.2-.18-1.2-.4 0-.22-.27-.4-.6-.4-.33 0-.6-.18-.6-.4 0-.22-.54-.4-1.2-.4-.66 0-1.2-.18-1.2-.4 0-.22-.36-.4-.8-.4-.44 0-.8-.18-.8-.4 0-.22-.54-.4-1.2-.4-.66 0-1.2-.162-1.2-.361 0-.198-1.08-.486-2.4-.639-1.32-.153-2.4-.441-2.4-.639 0-.199-.54-.361-1.2-.361-.66 0-1.2-.18-1.2-.4 0-.22-.54-.4-1.2-.4-.66 0-1.2-.18-1.2-.4 0-.22-.63-.4-1.4-.4-.77 0-1.4-.18-1.4-.4 0-.22-.54-.4-1.2-.4-.66 0-1.2-.18-1.2-.4 0-.22-.72-.4-1.6-.4-.88 0-1.6-.18-1.6-.4 0-.22-.72-.4-1.6-.4-.88 0-1.6-.18-1.6-.4 0-.22-.9-.4-2-.4s-2-.18-2-.4c0-.22-.63-.4-1.4-.4-.77 0-1.4-.18-1.4-.4 0-.222-1.067-.4-2.4-.4s-2.4-.178-2.4-.4c0-.22-.9-.4-2-.4s-2-.18-2-.4c0-.233-1.322-.4-3.167-.4-2.106 0-3.22-.161-3.326-.48-.159-.476-36.816-.829-46.407-.447M166 110.4c0 .44.18.8.4.8.22 0 .4.36.4.8 0 .44.18.8.4.8.22 0 .4.36.4.8 0 .622-.267.8-1.2.8-.66 0-1.2.18-1.2.4 0 .22-.72.4-1.6.4-.88 0-1.6.18-1.6.4 0 .22-.63.4-1.4.4-.77 0-1.4.18-1.4.4 0 .22-.54.4-1.2.4-.66 0-1.2.18-1.2.4 0 .22-.54.4-1.2.4-.66 0-1.2.18-1.2.4 0 .22-.54.4-1.2.4-.66 0-1.2.18-1.2.4 0 .22-.36.4-.8.4-.44 0-.8.18-.8.4 0 .22-.54.4-1.2.4-.66 0-1.2.18-1.2.4 0 .22-.36.4-.8.4-.44 0-.8.18-.8.4 0 .22-.36.4-.8.4-.44 0-.8.18-.8.4 0 .22-.27.4-.6.4-.33 0-.6.18-.6.4 0 .22-.36.4-.8.4-.44 0-.8.18-.8.4 0 .22-.36.4-.8.4-.44 0-.8.18-.8.4 0 .22-.36.4-.8.4-.44 0-.8.18-.8.4 0 .22-.36.4-.8.4-.44 0-.8.18-.8.4 0 .22-.283.4-.629.4-.345 0-.898.27-1.228.6-.33.33-.947.6-1.372.6-.424 0-.771.18-.771.4 0 .22-.32.4-.712.4-.391 0-.971.36-1.288.8-.317.44-.857.8-1.2.8-.343 0-.883.36-1.2.8-.317.44-.735.8-.928.8-.193 0-.855.54-1.472 1.2-.617.66-1.333 1.2-1.592 1.2-.259 0-1.162.72-2.008 1.6-.846.88-1.743 1.6-1.995 1.6-.251 0-1.334.9-2.405 2-1.071 1.1-2.153 2-2.403 2-.575 0-1.597 1.006-1.597 1.571 0 .236.54.429 1.2.429.66 0 1.2-.18 1.2-.4 0-.22.36-.4.8-.4.44 0 .8-.164.8-.365 0-.201.72-.486 1.6-.635.88-.149 1.601-.389 1.603-.535.004-.332 1.978-1.265 2.677-1.265.286 0 .52-.18.52-.4 0-.22.27-.4.6-.4.33 0 .6-.18.6-.4 0-.22.36-.4.8-.4.44 0 .8-.18.8-.4 0-.22.54-.4 1.2-.4.66 0 1.2-.18 1.2-.4 0-.22.36-.4.8-.4.44 0 .8-.18.8-.4 0-.22.36-.4.8-.4.44 0 .8-.18.8-.4 0-.22.36-.4.8-.4.44 0 .8-.18.8-.4 0-.22.54-.4 1.2-.4.66 0 1.2-.18 1.2-.4 0-.22.36-.4.8-.4.44 0 .8-.18.8-.4 0-.22.36-.4.8-.4.44 0 .8-.18.8-.4 0-.22.45-.4 1-.4s1-.18 1-.4c0-.22.54-.4 1.2-.4.66 0 1.2-.18 1.2-.4 0-.22.54-.4 1.2-.4.66 0 1.2-.18 1.2-.4 0-.22.36-.4.8-.4.44 0 .8-.18.8-.4 0-.22.54-.4 1.2-.4.66 0 1.2-.18 1.2-.4 0-.22.72-.4 1.6-.4.88 0 1.6-.18 1.6-.4 0-.22.54-.4 1.2-.4.66 0 1.2-.18 1.2-.4 0-.22.63-.4 1.4-.4.77 0 1.4-.166 1.4-.37 0-.203 1.62-.497 3.6-.652 1.98-.154 3.6-.438 3.6-.63 0-.191.9-.348 2-.348s2-.18 2-.4c0-.226 1.133-.4 2.6-.4s2.6-.174 2.6-.4c0-.237 1.467-.4 3.6-.4s3.6-.163 3.6-.4c0-.253 2.867-.4 7.8-.4s7.8-.147 7.8-.4c0-.22.72-.4 1.6-.4.88 0 1.6.18 1.6.4 0 .253 2.867.4 7.8.4s7.8.147 7.8.4c0 .233 1.333.4 3.2.4 1.867 0 3.2.167 3.2.4 0 .226 1.133.4 2.6.4s2.6.174 2.6.4c0 .22.9.4 2 .4s2 .157 2 .348c0 .192 1.62.476 3.6.63 1.98.155 3.6.449 3.6.652 0 .204.72.37 1.6.37.88 0 1.6.18 1.6.4 0 .22.63.4 1.4.4.77 0 1.4.18 1.4.4 0 .22.54.4 1.2.4.66 0 1.2.18 1.2.4 0 .22.54.4 1.2.4.66 0 1.2.18 1.2.4 0 .22.54.4 1.2.4.66 0 1.2.18 1.2.4 0 .22.36.4.8.4.44 0 .8.18.8.4 0 .22.54.4 1.2.4.66 0 1.2.18 1.2.4 0 .22.54.4 1.2.4.66 0 1.2.18 1.2.4 0 .22.27.4.6.4.33 0 .6.18.6.4 0 .22.54.4 1.2.4.66 0 1.2.18 1.2.4 0 .22.36.4.8.4.44 0 .8.18.8.4 0 .22.36.4.8.4.44 0 .8.18.8.4 0 .22.54.4 1.2.4.66 0 1.2.18 1.2.4 0 .22.36.4.8.4.44 0 .8.18.8.4 0 .22.36.4.8.4.44 0 .8.18.8.4 0 .22.36.4.8.4.44 0 .8.18.8.4 0 .22.36.4.8.4.44 0 .8.18.8.4 0 .22.36.4.8.4.44 0 .8.138.8.306 0 .371 2.969 1.694 3.803 1.694.328 0 .597.18.597.4 0 .22.36.4.8.4.44 0 .8.18.8.4 0 .22.54.4 1.2.4.66 0 1.2-.188 1.2-.418 0-.555-1.844-2.382-2.404-2.382-.242 0-1.5-1.08-2.796-2.4-1.296-1.32-2.563-2.4-2.817-2.4s-.966-.54-1.583-1.2c-.617-.66-1.247-1.2-1.4-1.2-.153 0-.783-.54-1.4-1.2-.617-.66-1.369-1.2-1.672-1.2-.303 0-.811-.36-1.128-.8-.317-.44-.831-.8-1.141-.8-.311 0-.856-.336-1.212-.746-.356-.411-1.277-.885-2.047-1.054-.77-.169-1.691-.643-2.047-1.054-.356-.41-.941-.746-1.3-.746-.359 0-.653-.18-.653-.4 0-.22-.36-.4-.8-.4-.44 0-.8-.18-.8-.4 0-.22-.36-.4-.8-.4-.44 0-.8-.18-.8-.4 0-.22-.27-.4-.6-.4-.33 0-.6-.18-.6-.4 0-.22-.54-.4-1.2-.4-.66 0-1.2-.18-1.2-.4 0-.22-.36-.4-.8-.4-.44 0-.8-.18-.8-.4 0-.22-.36-.4-.8-.4-.44 0-.8-.18-.8-.4 0-.22-.54-.4-1.2-.4-.66 0-1.2-.18-1.2-.4 0-.22-.36-.4-.8-.4-.44 0-.8-.18-.8-.4 0-.22-.54-.4-1.2-.4-.66 0-1.2-.18-1.2-.4 0-.22-.54-.4-1.2-.4-.66 0-1.2-.18-1.2-.4 0-.22-.45-.4-1-.4s-1-.18-1-.4c0-.22-.72-.4-1.6-.4-.88 0-1.6-.18-1.6-.4 0-.22-.72-.4-1.6-.4-.88 0-1.6-.18-1.6-.4 0-.22-.54-.4-1.2-.4-.66 0-1.2-.18-1.2-.4 0-.22.18-.4.4-.4.22 0 .4-.36.4-.8 0-.44.18-.8.4-.8.22 0 .4-.283.4-.629 0-.345.257-.885.571-1.2.647-.646 3.429-.785 3.429-.171 0 .222 1.067.4 2.4.4s2.4.178 2.4.4c0 .22.81.4 1.8.4s1.8.18 1.8.4c0 .22.72.4 1.6.4.88 0 1.6.18 1.6.4 0 .22.54.4 1.2.4.66 0 1.2.18 1.2.4 0 .22.72.4 1.6.4.88 0 1.6.18 1.6.4 0 .22.54.4 1.2.4.66 0 1.2.18 1.2.4 0 .22.54.4 1.2.4.66 0 1.2.18 1.2.4 0 .22.27.4.6.4.33 0 .6.18.6.4 0 .22.54.4 1.2.4.66 0 1.2.18 1.2.4 0 .22.36.4.8.4.44 0 .8.18.8.4 0 .22.36.4.8.4.44 0 .8.18.8.4 0 .22.36.4.8.4.44 0 .8.18.8.4 0 .22.36.4.8.4.44 0 .8.18.8.4 0 .22.36.4.8.4.44 0 .8.18.8.4 0 .22.36.4.8.4.44 0 .8.18.8.4 0 .22.36.4.8.4.44 0 .8.18.8.4 0 .22.36.4.8.4.44 0 .8.143.8.318 0 .175.81.652 1.8 1.06.99.409 1.8.895 1.8 1.082 0 .187.36.34.8.34.44 0 .8.18.8.4 0 .22.32.4.712.4.391 0 .971.36 1.288.8.317.44.857.8 1.2.8.343 0 .883.36 1.2.8.317.44.857.8 1.2.8.343 0 .883.36 1.2.8.317.44.897.8 1.288.8.416 0 .712.296.712.712 0 .391.36.971.8 1.288.44.317.8.897.8 1.288 0 .392.18.712.4.712.22 0 .4.283.4.629 0 .345.27.898.6 1.228.33.33.6.947.6 1.372 0 .424.146.771.325.771.179 0 .573.63.875 1.4.302.77.696 1.4.875 1.4.179 0 .325.36.325.8 0 .44.18.8.4.8.22 0 .4.36.4.8 0 .44.18.8.4.8.22 0 .4.36.4.8 0 .44.18.8.4.8.22 0 .4.36.4.8 0 .44.18.8.4.8.22 0 .4.36.4.8 0 .44.18.8.4.8.22 0 .4.36.4.8 0 .44.18.8.4.8.22 0 .4.54.4 1.2 0 .66.18 1.2.4 1.2.22 0 .4.36.4.8 0 .44.18.8.4.8.22 0 .4.54.4 1.2 0 .66.18 1.2.4 1.2.22 0 .4.27.4.6 0 .33.18.6.4.6.22 0 .4.54.4 1.2 0 .66.18 1.2.4 1.2.22 0 .4.36.4.8 0 .44.18.8.4.8.22 0 .4.54.4 1.2 0 .66.18 1.2.4 1.2.22 0 .4.54.4 1.2 0 .66.18 1.2.4 1.2.22 0 .4.36.4.8 0 .44.18.8.4.8.22 0 .4.54.4 1.2 0 .66.18 1.2.4 1.2.22 0 .4.54.4 1.2 0 .66.159 1.2.353 1.2.195 0 .479 1.17.632 2.6.153 1.43.444 2.6.647 2.6.202 0 .368.54.368 1.2 0 .66.18 1.2.4 1.2.22 0 .4.72.4 1.6 0 .88.18 1.6.4 1.6.22 0 .4.54.4 1.2 0 .66.18 1.2.4 1.2.22 0 .4.72.4 1.6 0 .88.18 1.6.4 1.6.22 0 .4.63.4 1.4 0 .77.18 1.4.4 1.4.22 0 .4.72.4 1.6 0 .88.18 1.6.4 1.6.22 0 .4.72.4 1.6 0 .88.18 1.6.4 1.6.22 0 .4.72.4 1.6 0 .88.18 1.6.4 1.6.22 0 .4.9.4 2s.18 2 .4 2c.22 0 .4.81.4 1.8s.18 1.8.4 1.8c.222 0 .4 1.067.4 2.4s.178 2.4.4 2.4c.222 0 .4 1.067.4 2.4s.178 2.4.4 2.4c.22 0 .4.99.4 2.2 0 1.21.18 2.2.4 2.2.229 0 .4 1.2.4 2.8 0 1.6.171 2.8.4 2.8.233 0 .4 1.333.4 3.2 0 1.867.167 3.2.4 3.2.235 0 .4 1.4.4 3.4s.165 3.4.4 3.4c.246 0 .4 2 .4 5.2s.154 5.2.4 5.2c1.188 0 .248 2.298-1.637 4-1.096.99-3.514 3.285-5.372 5.1-1.859 1.815-3.58 3.3-3.825 3.3-.245 0-.949.54-1.566 1.2-.617.66-1.247 1.2-1.4 1.2-.153 0-.783.54-1.4 1.2-.617.66-1.369 1.2-1.672 1.2-.303 0-.811.36-1.128.8-.317.44-.857.8-1.2.8-.343 0-.883.36-1.2.8-.317.44-.897.8-1.288.8-.392 0-.712.18-.712.4 0 .22-.32.4-.712.4-.391 0-.963.35-1.271.777-.308.427-1.248.893-2.089 1.035-.84.142-1.528.389-1.528.549 0 .159-.63.537-1.4.839-.77.302-1.4.696-1.4.875 0 .179-.54.325-1.2.325-.66 0-1.2.18-1.2.4 0 .22-.36.4-.8.4-.44 0-.8.18-.8.4 0 .22-.36.4-.8.4-.44 0-.8.18-.8.4 0 .22-.54.4-1.2.4-.66 0-1.2.18-1.2.4 0 .22-.36.4-.8.4-.44 0-.8.18-.8.4 0 .22-.54.4-1.2.4-.66 0-1.2.18-1.2.4 0 .22-.54.4-1.2.4-.66 0-1.2.18-1.2.4 0 .22-.63.4-1.4.4-.77 0-1.4.18-1.4.4 0 .22-.54.4-1.2.4-.66 0-1.2.18-1.2.4 0 .22-.72.4-1.6.4-.88 0-1.6.18-1.6.4 0 .22-.9.4-2 .4s-2 .18-2 .4c0 .222-1.067.4-2.4.4s-2.4.178-2.4.4c0 .235-1.4.4-3.4.4s-3.4.165-3.4.4c0 .22-.636.4-1.413.4-1.423 0-4.187-2.13-4.187-3.226 0-.249-.54-.957-1.2-1.574-.66-.617-1.2-1.337-1.2-1.6 0-.263-.54-.983-1.2-1.6-.66-.617-1.2-1.369-1.2-1.672 0-.303-.36-.811-.8-1.128-.44-.317-.8-.717-.8-.888 0-.172.36-.312.8-.312.44 0 .8-.18.8-.4 0-.22.54-.4 1.2-.4.66 0 1.2-.18 1.2-.4 0-.22.36-.4.8-.4.44 0 .8-.18.8-.4 0-.22.54-.4 1.2-.4.66 0 1.2-.164 1.2-.365 0-.201.72-.486 1.6-.635.88-.149 1.6-.434 1.6-.635s.36-.365.8-.365c.44 0 .8-.146.8-.325 0-.179.63-.573 1.4-.875.77-.302 1.4-.696 1.4-.875 0-.179.36-.325.8-.325.44 0 .8-.18.8-.4 0-.22.32-.4.712-.4.391 0 .971-.36 1.288-.8.317-.44.897-.8 1.288-.8.392 0 .712-.18.712-.4 0-.22.32-.4.712-.4.391 0 .971-.36 1.288-.8.317-.44.857-.8 1.2-.8.343 0 .883-.36 1.2-.8.317-.44.857-.8 1.2-.8.343 0 .883-.36 1.2-.8.317-.44.825-.8 1.128-.8.303 0 1.055-.54 1.672-1.2.617-.66 1.235-1.2 1.374-1.2s.883-.63 1.653-1.4c.77-.77 1.665-1.4 1.99-1.4.92 0 12.286-11.556 12.027-12.228-.322-.84-1.978-.697-2.644.228-.317.44-.857.8-1.2.8-.343 0-.883.36-1.2.8-.317.44-.857.8-1.2.8-.343 0-.883.36-1.2.8-.317.44-.857.8-1.2.8-.343 0-.883.36-1.2.8-.317.44-.897.8-1.288.8-.392 0-.712.18-.712.4 0 .22-.348.4-.773.4-.425 0-.887.36-1.027.8-.14.44-.562.8-.939.8-.376 0-.944.36-1.261.8-.317.44-.897.8-1.288.8-.392 0-.712.18-.712.4 0 .22-.36.4-.8.4-.44 0-.8.18-.8.4 0 .22-.36.4-.8.4-.44 0-.8.18-.8.4 0 .22-.36.4-.8.4-.44 0-.8.18-.8.4 0 .22-.36.4-.8.4-.44 0-.8.174-.8.386 0 .213-.9.506-2 .652-1.1.146-2 .388-2 .539 0 .15-.63.521-1.4.823-.77.302-1.4.696-1.4.875 0 .179-.54.325-1.2.325-.66 0-1.2.18-1.2.4 0 .22-.54.4-1.2.4-.66 0-1.2.18-1.2.4 0 .22-.54.4-1.2.4-.66 0-1.2.18-1.2.4 0 .22-.36.4-.8.4-.44 0-.8.18-.8.4 0 .22-.72.4-1.6.4-.88 0-1.6.18-1.6.4 0 .22-.54.4-1.2.4-.66 0-1.2.18-1.2.4 0 .22-.63.4-1.4.4-.77 0-1.4.18-1.4.4 0 .22-.72.4-1.6.4-.88 0-1.6.18-1.6.4 0 .22-.72.4-1.6.4-.88 0-1.6.18-1.6.4 0 .22-.9.4-2 .4s-2 .18-2 .4c0 .222-1.067.4-2.4.4s-2.4.178-2.4.4c0 .231-1.267.4-3 .4s-3 .169-3 .4c0 .24-1.6.4-4 .4s-4 .16-4 .4c0 .259-4.667.4-13.2.4s-13.2-.141-13.2-.4c0-.242-1.733-.4-4.4-.4-2.667 0-4.4-.158-4.4-.4 0-.226-1.133-.4-2.6-.4s-2.6-.174-2.6-.4c0-.222-1.067-.4-2.4-.4s-2.4-.178-2.4-.4c0-.22-.9-.4-2-.4s-2-.18-2-.4c0-.22-.9-.4-2-.4s-2-.18-2-.4c0-.22-.63-.4-1.4-.4-.77 0-1.4-.18-1.4-.4 0-.22-.54-.4-1.2-.4-.66 0-1.2-.18-1.2-.4 0-.22-.72-.4-1.6-.4-.88 0-1.6-.18-1.6-.4 0-.22-.54-.4-1.2-.4-.66 0-1.2-.18-1.2-.4 0-.22-.54-.4-1.2-.4-.66 0-1.2-.18-1.2-.4 0-.22-.54-.4-1.2-.4-.66 0-1.2-.18-1.2-.4 0-.22-.54-.4-1.2-.4-.66 0-1.201-.135-1.203-.3-.004-.406-1.983-1.3-2.877-1.3-.396 0-.72-.18-.72-.4 0-.22-.36-.4-.8-.4-.44 0-.8-.164-.8-.365 0-.201-.72-.486-1.6-.635-.88-.149-1.6-.434-1.6-.635s-.36-.365-.8-.365c-.44 0-.8-.18-.8-.4 0-.22-.36-.4-.8-.4-.44 0-.8-.18-.8-.4 0-.22-.36-.4-.8-.4-.44 0-.8-.18-.8-.4 0-.22-.36-.4-.8-.4-.44 0-.8-.18-.8-.4 0-.22-.36-.4-.8-.4-.44 0-.8-.18-.8-.4 0-.22-.23-.4-.512-.4-.281 0-.771-.36-1.088-.8-.317-.44-.897-.8-1.288-.8-.392 0-.712-.18-.712-.4 0-.22-.32-.4-.712-.4-.391 0-.971-.36-1.288-.8-.317-.44-.897-.8-1.288-.8-.392 0-.712-.18-.712-.4 0-.22-.288-.4-.64-.4-.351 0-1.143-.54-1.76-1.2-.617-.66-1.369-1.2-1.672-1.2-.303 0-.811-.36-1.128-.8-.317-.44-.857-.8-1.2-.8-.343 0-.883-.36-1.2-.8-.684-.949-1.6-1.054-1.6-.183 0 .577.256.981 1.5 2.368.275.307.5.754.5.993 0 .556 5.849 6.422 6.404 6.422.229 0 1.212.765 2.183 1.7 2.376 2.287 2.901 2.7 3.427 2.7.247 0 1.14.72 1.986 1.6.846.88 1.692 1.6 1.88 1.6.189 0 .603.36.92.8.317.44.825.8 1.128.8.303 0 1.055.54 1.672 1.2.617.66 1.409 1.2 1.76 1.2.352 0 .64.18.64.4 0 .22.32.4.712.4.391 0 .971.36 1.288.8.317.44.897.8 1.288.8.392 0 .712.18.712.4 0 .22.32.4.712.4.391 0 .971.36 1.288.8.317.44.897.8 1.288.8.392 0 .712.18.712.4 0 .22.345.4.767.4.421 0 .826.135.9.3.234.527 3.68 2.06 5.233 2.329.825.143 1.5.42 1.5.616 0 .195.36.355.8.355.44 0 .8.18.8.4 0 .22.54.4 1.2.4.66 0 1.2.18 1.2.4 0 .22.36.4.8.4.44 0 .8.18.8.4 0 .22.36.4.8.4 1.172 0 .988 1.104-.4 2.4-.66.617-1.2 1.337-1.2 1.6 0 .263-.54.983-1.2 1.6-.66.617-1.2 1.337-1.2 1.6 0 .263-.54.983-1.2 1.6-.66.617-1.2 1.332-1.2 1.589 0 .97-1.182 1.611-2.971 1.611-1.006 0-1.829-.18-1.829-.4 0-.231-1.267-.4-3-.4s-3-.169-3-.4c0-.229-1.2-.4-2.8-.4-1.6 0-2.8-.171-2.8-.4 0-.22-.72-.4-1.6-.4-.88 0-1.6-.18-1.6-.4 0-.22-.72-.4-1.6-.4-.88 0-1.6-.18-1.6-.4 0-.22-.63-.4-1.4-.4-.77 0-1.4-.18-1.4-.4 0-.22-.54-.4-1.2-.4-.66 0-1.2-.18-1.2-.4 0-.22-.54-.4-1.2-.4-.66 0-1.2-.18-1.2-.4 0-.22-.54-.4-1.2-.4-.66 0-1.2-.18-1.2-.4 0-.22-.54-.4-1.2-.4-.66 0-1.2-.18-1.2-.4 0-.22-.54-.4-1.2-.4-.66 0-1.2-.18-1.2-.4 0-.22-.36-.4-.8-.4-.44 0-.8-.18-.8-.4 0-.22-.36-.4-.8-.4-.44 0-.8-.18-.8-.4 0-.22-.27-.4-.6-.4-.33 0-.6-.18-.6-.4 0-.22-.36-.4-.8-.4-.44 0-.8-.18-.8-.4 0-.22-.36-.4-.8-.4-.44 0-.8-.164-.8-.365 0-.201-.72-.486-1.6-.635-.88-.149-1.6-.434-1.6-.635s-.36-.365-.8-.365c-.44 0-.8-.18-.8-.4 0-.22-.32-.4-.712-.4-.391 0-.971-.36-1.288-.8-.317-.44-.857-.8-1.2-.8-.343 0-.883-.36-1.2-.8-.317-.44-.857-.8-1.2-.8-.343 0-.883-.36-1.2-.8-.317-.44-.735-.8-.928-.8-.193 0-.855-.54-1.472-1.2-.617-.66-1.33-1.2-1.586-1.2s-1.343-.9-2.414-2c-1.071-1.1-2.144-2-2.383-2-.239 0-1.412-.945-2.607-2.1a127.928 127.928 0 0 0-3.772-3.5l-1.601-1.4-.019-4.7c-.011-2.879.137-4.7.382-4.7.241 0 .4-1.667.4-4.2 0-2.533.159-4.2.4-4.2.233 0 .4-1.333.4-3.2 0-1.867.167-3.2.4-3.2s.4-1.333.4-3.2c0-1.867.167-3.2.4-3.2.22 0 .4-.99.4-2.2 0-1.21.18-2.2.4-2.2.229 0 .4-1.2.4-2.8 0-1.6.171-2.8.4-2.8.22 0 .4-.9.4-2s.18-2 .4-2c.22 0 .4-.9.4-2s.18-2 .4-2c.22 0 .4-.81.4-1.8s.18-1.8.4-1.8c.22 0 .4-.9.4-2s.18-2 .4-2c.22 0 .4-.72.4-1.6 0-.88.18-1.6.4-1.6.22 0 .4-.72.4-1.6 0-.88.18-1.6.4-1.6.22 0 .4-.72.4-1.6 0-.88.18-1.6.4-1.6.22 0 .4-.63.4-1.4 0-.77.18-1.4.4-1.4.22 0 .4-.72.4-1.6 0-.88.18-1.6.4-1.6.22 0 .4-.54.4-1.2 0-.66.18-1.2.4-1.2.22 0 .4-.72.4-1.6 0-.88.18-1.6.4-1.6.22 0 .4-.54.4-1.2 0-.66.18-1.2.4-1.2.22 0 .4-.54.4-1.2 0-.66.167-1.2.371-1.2s.495-.99.646-2.2c.151-1.21.434-2.2.629-2.2s.354-.54.354-1.2c0-.66.18-1.2.4-1.2.22 0 .4-.36.4-.8 0-.44.18-.8.4-.8.22 0 .4-.54.4-1.2 0-.66.18-1.2.4-1.2.22 0 .4-.54.4-1.2 0-.66.18-1.2.4-1.2.22 0 .4-.36.4-.8 0-.44.18-.8.4-.8.22 0 .4-.45.4-1s.18-1 .4-1c.22 0 .4-.36.4-.8 0-.44.18-.8.4-.8.22 0 .4-.54.4-1.2 0-.66.18-1.2.4-1.2.22 0 .4-.36.4-.8 0-.44.18-.8.4-.8.22 0 .4-.36.4-.8 0-.44.18-.8.4-.8.22 0 .4-.54.4-1.2 0-.66.18-1.2.4-1.2.22 0 .4-.36.4-.8 0-.44.18-.8.4-.8.22 0 .4-.36.4-.8 0-.44.18-.8.4-.8.22 0 .4-.36.4-.8 0-.44.18-.8.4-.8.22 0 .4-.36.4-.8 0-.44.18-.8.4-.8.22 0 .4-.27.4-.6 0-.33.18-.6.4-.6.22 0 .4-.32.4-.712 0-.391.36-.971.8-1.288.44-.317.8-.897.8-1.288 0-.392.18-.712.4-.712.22 0 .4-.36.4-.8 0-.44.177-.8.392-.8.216 0 .514-.482.662-1.072.299-1.191 3.429-4.528 4.247-4.528.287 0 .782-.36 1.099-.8.317-.44.857-.8 1.2-.8.343 0 .883-.36 1.2-.8.317-.44.897-.8 1.288-.8.392 0 .712-.18.712-.4 0-.22.283-.4.629-.4.345 0 .898-.27 1.228-.6.33-.33.947-.6 1.372-.6.424 0 .771-.146.771-.325 0-.179.63-.573 1.4-.875.77-.302 1.4-.696 1.4-.875 0-.179.36-.325.8-.325.44 0 .8-.18.8-.4 0-.22.36-.4.8-.4.44 0 .8-.18.8-.4 0-.22.36-.4.8-.4.44 0 .8-.18.8-.4 0-.22.36-.4.8-.4.44 0 .8-.18.8-.4 0-.22.36-.4.8-.4.44 0 .8-.18.8-.4 0-.22.36-.4.8-.4.44 0 .8-.18.8-.4 0-.22.54-.4 1.2-.4.66 0 1.2-.18 1.2-.4 0-.22.36-.4.8-.4.44 0 .8-.18.8-.4 0-.22.54-.4 1.2-.4.66 0 1.2-.18 1.2-.4 0-.22.45-.4 1-.4s1-.18 1-.4c0-.22.54-.4 1.2-.4.66 0 1.2-.18 1.2-.4 0-.22.54-.4 1.2-.4.66 0 1.2-.18 1.2-.4 0-.22.72-.4 1.6-.4.88 0 1.6-.18 1.6-.4 0-.22.72-.4 1.6-.4.88 0 1.6-.18 1.6-.4 0-.22.9-.4 2-.4s2-.18 2-.4c0-.22.99-.4 2.2-.4 1.21 0 2.2-.18 2.2-.4 0-.22.72-.4 1.6-.4 1.333 0 1.6.133 1.6.8m-6.8 78c0 .22-.54.4-1.2.4-.66 0-1.2.18-1.2.4 0 .22-.5.4-1.112.4-.653 0-1.349.33-1.688.8-.317.44-.813.8-1.102.8-.288 0-1.141.585-1.895 1.3-.753.715-2.089 1.93-2.968 2.7-.879.77-1.606 1.715-1.617 2.1-.01.385-.198.7-.418.7-.22 0-.4.36-.4.8 0 .44-.18.8-.4.8-.22 0-.4.345-.4.767 0 .421-.189.829-.419.906-.231.077-.526 1.172-.656 2.433-.13 1.262-.392 2.294-.581 2.294-.189 0-.344 2.43-.344 5.4s.155 5.4.344 5.4c.189 0 .449 1.018.578 2.263.128 1.244.381 2.369.561 2.5.18.13.775 1.135 1.322 2.233 1.034 2.075 6.393 7.804 7.3 7.804.285 0 .778.36 1.095.8.339.47 1.035.8 1.688.8.612 0 1.112.18 1.112.4 0 .22.54.4 1.2.4.66 0 1.2.18 1.2.4 0 .239 1.533.4 3.8.4s3.8-.161 3.8-.4c0-.22.72-.4 1.6-.4.88 0 1.6-.18 1.6-.4 0-.22.36-.4.8-.4.44 0 .8-.18.8-.4 0-.22.32-.4.712-.4.391 0 .971-.36 1.288-.8.317-.44.722-.8.899-.8.534 0 3.901-3.539 3.901-4.101 0-.287.36-.782.8-1.099.44-.317.8-.807.8-1.088 0-.282.18-.512.4-.512.22 0 .4-.36.4-.8 0-.44.18-.8.4-.8.22 0 .4-.36.4-.8 0-.44.18-.8.4-.8.22 0 .4-.54.4-1.2 0-.66.18-1.2.4-1.2.229 0 .4-1.2.4-2.8 0-1.6.171-2.8.4-2.8.22 0 .4-.63.4-1.4 0-.77-.18-1.4-.4-1.4-.229 0-.4-1.2-.4-2.8 0-1.6-.171-2.8-.4-2.8-.22 0-.4-.54-.4-1.2 0-.66-.18-1.2-.4-1.2-.22 0-.4-.36-.4-.8 0-.44-.18-.8-.4-.8-.22 0-.4-.36-.4-.8 0-.44-.18-.8-.4-.8-.22 0-.4-.32-.4-.712 0-.391-.36-.971-.8-1.288-.44-.317-.8-.857-.8-1.2 0-.343-.385-.888-.855-1.212-.471-.323-1.272-.993-1.782-1.488s-1.075-.9-1.257-.9c-.181 0-.589-.36-.906-.8-.317-.44-.897-.8-1.288-.8-.392 0-.712-.18-.712-.4 0-.22-.36-.4-.8-.4-.44 0-.8-.18-.8-.4 0-.22-.72-.4-1.6-.4-.88 0-1.6-.18-1.6-.4 0-.239-1.533-.4-3.8-.4s-3.8.161-3.8.4m74 0c0 .22-.72.4-1.6.4-.88 0-1.6.18-1.6.4 0 .22-.36.4-.8.4-.44 0-.8.18-.8.4 0 .22-.23.4-.512.4-.281 0-.771.36-1.088.8-.317.44-.815.8-1.106.8-.292 0-.947.405-1.457.9-.51.495-1.311 1.165-1.782 1.488-.47.324-.855.869-.855 1.212 0 .343-.36.883-.8 1.2-.44.317-.8.897-.8 1.288 0 .392-.18.712-.4.712-.22 0-.4.36-.4.8 0 .44-.18.8-.4.8-.22 0-.4.36-.4.8 0 .44-.18.8-.4.8-.22 0-.4.54-.4 1.2 0 .66-.18 1.2-.4 1.2-.229 0-.4 1.2-.4 2.8 0 1.6-.171 2.8-.4 2.8-.22 0-.4.63-.4 1.4 0 .77.18 1.4.4 1.4.229 0 .4 1.2.4 2.8 0 1.6.171 2.8.4 2.8.22 0 .4.54.4 1.2 0 .66.18 1.2.4 1.2.22 0 .4.36.4.8 0 .44.18.8.4.8.22 0 .4.36.4.8 0 .44.18.8.4.8.22 0 .4.23.4.512 0 .281.36.771.8 1.088.44.317.8.812.8 1.099 0 .679 3.422 4.101 4.101 4.101.287 0 .782.36 1.099.8.317.44.807.8 1.088.8.282 0 .512.18.512.4 0 .22.36.4.8.4.44 0 .8.18.8.4 0 .22.72.4 1.6.4.88 0 1.6.18 1.6.4 0 .24 1.6.4 4 .4s4-.16 4-.4c0-.22.45-.4 1-.4s1-.18 1-.4c0-.22.5-.4 1.112-.4.653 0 1.349-.33 1.688-.8.317-.44.81-.8 1.095-.8.608 0 6.505-5.796 6.505-6.394 0-.223.18-.406.4-.406.22 0 .4-.36.4-.8 0-.44.18-.8.4-.8.22 0 .4-.36.4-.8 0-.44.18-.8.4-.8.22 0 .4-.36.4-.8 0-.44.18-.8.4-.8.22 0 .4-.72.4-1.6 0-.88.18-1.6.4-1.6.247 0 .4-2.067.4-5.4s-.153-5.4-.4-5.4c-.22 0-.4-.72-.4-1.6 0-.88-.18-1.6-.4-1.6-.22 0-.4-.36-.4-.8 0-.44-.18-.8-.4-.8-.22 0-.4-.36-.4-.8 0-.44-.18-.8-.4-.8-.22 0-.4-.36-.4-.8 0-.44-.18-.8-.4-.8-.22 0-.408-.315-.418-.7-.011-.385-.738-1.33-1.617-2.1s-2.215-1.985-2.968-2.7c-.754-.715-1.607-1.3-1.895-1.3-.289 0-.785-.36-1.102-.8-.339-.47-1.035-.8-1.688-.8-.612 0-1.112-.18-1.112-.4 0-.22-.45-.4-1-.4s-1-.18-1-.4c0-.24-1.6-.4-4-.4s-4 .16-4 .4" fill="#fff" fill-rule="evenodd"/>
</svg>