<svg width="400" height="400" xmlns="http://www.w3.org/2000/svg"><path d="M184.8 4.8c0 .239-1.533.4-3.8.4s-3.8.161-3.8.4c0 .233-1.333.4-3.2.4-1.867 0-3.2.167-3.2.4 0 .229-1.2.4-2.8.4-1.6 0-2.8.171-2.8.4 0 .222-1.067.4-2.4.4s-2.4.178-2.4.4c0 .22-.63.4-1.4.4-.77 0-1.4.18-1.4.4 0 .22-.9.4-2 .4s-2 .161-2 .358c0 .197-1.44.486-3.2.642-1.76.156-3.2.445-3.2.642s-.619.358-1.376.358c-.757 0-1.488.18-1.624.4-.136.22-.687.4-1.224.4-.537 0-.976.18-.976.4 0 .22-.54.4-1.2.4-.66 0-1.2.18-1.2.4 0 .22-.54.4-1.2.4-.66 0-1.2.18-1.2.4 0 .22-.72.4-1.6.4-.88 0-1.6.18-1.6.4 0 .22-.36.4-.8.4-.44 0-.8.18-.8.4 0 .22-.54.4-1.2.4-.66 0-1.2.18-1.2.4 0 .22-.54.4-1.2.4-.66 0-1.2.18-1.2.4 0 .22-.27.4-.6.4-.33 0-.6.18-.6.4 0 .22-.54.4-1.2.4-.66 0-1.2.18-1.2.4 0 .22-.36.4-.8.4-.44 0-.8.18-.8.4 0 .22-.54.4-1.2.4-.66 0-1.2.18-1.2.4 0 .22-.36.4-.8.4-.44 0-.8.18-.8.4 0 .22-.36.4-.8.4-.44 0-.8.18-.8.4 0 .22-.36.4-.8.4-.44 0-.8.18-.8.4 0 .22-.36.4-.8.4-.44 0-.8.18-.8.4 0 .22-.36.4-.8.4-.44 0-.8.18-.8.4 0 .22-.36.4-.8.4-.44 0-.8.18-.8.4 0 .22-.27.4-.6.4-.33 0-.6.18-.6.4 0 .22-.36.4-.8.4-.44 0-.8.164-.8.365 0 .201-.72.486-1.6.635-.88.149-1.6.434-1.6.635s-.36.365-.8.365c-.44 0-.8.18-.8.4 0 .22-.32.4-.712.4-.391 0-.971.36-1.288.8-.317.44-.897.8-1.288.8-.392 0-.712.18-.712.4 0 .22-.32.4-.712.4-.391 0-.971.36-1.288.8-.317.44-.897.8-1.288.8-.392 0-.712.18-.712.4 0 .22-.23.4-.512.4-.281 0-.771.36-1.088.8-.317.44-.857.8-1.2.8-.343 0-.883.36-1.2.8-.317.44-.897.8-1.288.8-.392 0-.712.18-.712.4 0 .22-.288.4-.64.4-.351 0-1.143.54-1.76 1.2-.617.66-1.337 1.2-1.6 1.2-.263 0-.983.54-1.6 1.2-.617.66-1.409 1.2-1.76 1.2-.352 0-.64.177-.64.392 0 .216-.451.506-1.001.644-.551.138-1.439.772-1.974 1.408-.536.636-1.177 1.156-1.425 1.156-.249 0-1.329.9-2.4 2s-2.154 2-2.405 2c-.252 0-1.149.72-1.995 1.6-.846.88-1.734 1.6-1.975 1.6-.565 0-18.825 18.258-18.825 18.823 0 .236-.9 1.306-2 2.377-1.1 1.071-2 2.102-2 2.291 0 .188-.63 1.01-1.4 1.827-.77.816-1.4 1.681-1.4 1.922 0 .242-.54.943-1.2 1.56-.66.617-1.2 1.337-1.2 1.6 0 .263-.54.983-1.2 1.6-.66.617-1.2 1.369-1.2 1.672 0 .303-.36.811-.8 1.128-.44.317-.8.825-.8 1.128 0 .303-.54 1.055-1.2 1.672-.66.617-1.2 1.397-1.2 1.734 0 .336-.36.726-.8.866-.44.14-.8.602-.8 1.027 0 .425-.18.773-.4.773-.22 0-.4.32-.4.712 0 .391-.36.971-.8 1.288-.44.317-.8.831-.8 1.141 0 .311-.336.856-.746 1.212-.411.356-.885 1.277-1.054 2.047-.169.77-.643 1.691-1.054 2.047-.41.356-.746.941-.746 1.3 0 .359-.18.653-.4.653-.22 0-.4.36-.4.8 0 .44-.18.8-.4.8-.22 0-.4.36-.4.8 0 .44-.18.8-.4.8-.22 0-.4.27-.4.6 0 .33-.18.6-.4.6-.22 0-.4.32-.4.712 0 .391-.36.971-.8 1.288-.44.317-.8.897-.8 1.288 0 .392-.18.712-.4.712-.22 0-.4.36-.4.8 0 .44-.18.8-.4.8-.22 0-.4.36-.4.8 0 .44-.18.8-.4.8-.22 0-.4.54-.4 1.2 0 .66-.18 1.2-.4 1.2-.22 0-.4.36-.4.8 0 .44-.18.8-.4.8-.22 0-.4.36-.4.8 0 .44-.18.8-.4.8-.22 0-.4.36-.4.8 0 .44-.18.8-.4.8-.22 0-.4.36-.4.8 0 .44-.18.8-.4.8-.22 0-.4.45-.4 1s-.18 1-.4 1c-.22 0-.4.36-.4.8 0 .44-.18.8-.4.8-.22 0-.4.54-.4 1.2 0 .66-.18 1.2-.4 1.2-.22 0-.4.54-.4 1.2 0 .66-.18 1.2-.4 1.2-.22 0-.4.36-.4.8 0 .44-.162.8-.361.8-.198 0-.486 1.08-.639 2.4-.153 1.32-.441 2.4-.639 2.4-.199 0-.361.54-.361 1.2 0 .66-.18 1.2-.4 1.2-.22 0-.4.63-.4 1.4 0 .77-.18 1.4-.4 1.4-.22 0-.4.54-.4 1.2 0 .66-.18 1.2-.4 1.2-.22 0-.4.54-.4 1.2 0 .66-.18 1.2-.4 1.2-.22 0-.4.72-.4 1.6 0 .88-.18 1.6-.4 1.6-.22 0-.4.72-.4 1.6 0 .88-.18 1.6-.4 1.6-.22 0-.4.81-.4 1.8s-.18 1.8-.4 1.8c-.22 0-.4.72-.4 1.6 0 .88-.18 1.6-.4 1.6-.222 0-.4 1.067-.4 2.4s-.178 2.4-.4 2.4c-.222 0-.4 1.067-.4 2.4s-.178 2.4-.4 2.4c-.225 0-.4 1.122-.4 2.567 0 1.697-.169 2.623-.5 2.733-.732.244-.732 49.556 0 49.8.35.117.5 1.236.5 3.733 0 2.111.163 3.567.4 3.567.222 0 .4 1.067.4 2.4s.178 2.4.4 2.4c.22 0 .4.81.4 1.8s.18 1.8.4 1.8c.22 0 .4.9.4 2s.18 2 .4 2c.22 0 .4.9.4 2s.18 2 .4 2c.22 0 .4.54.4 1.2 0 .66.18 1.2.4 1.2.22 0 .4.72.4 1.6 0 .88.18 1.6.4 1.6.22 0 .4.63.4 1.4 0 .77.18 1.4.4 1.4.22 0 .4.54.4 1.2 0 .66.18 1.2.4 1.2.22 0 .4.72.4 1.6 0 .88.18 1.6.4 1.6.22 0 .4.54.4 1.2 0 .66.169 1.2.375 1.2.207 0 .498.812.647 1.805.149.993.43 1.903.624 2.024.195.12.354.658.354 1.195s.18.976.4.976c.22 0 .4.54.4 1.2 0 .66.18 1.2.4 1.2.22 0 .4.36.4.8 0 .44.18.8.4.8.22 0 .4.54.4 1.2 0 .66.18 1.2.4 1.2.22 0 .4.36.4.8 0 .44.18.8.4.8.22 0 .4.36.4.8 0 .44.18.8.4.8.22 0 .4.54.4 1.2 0 .66.18 1.2.4 1.2.22 0 .4.36.4.8 0 .44.18.8.4.8.22 0 .4.36.4.8 0 .44.18.8.4.8.22 0 .4.27.4.6 0 .33.18.6.4.6.22 0 .4.36.4.8 0 .44.18.8.4.8.22 0 .4.36.4.8 0 .44.18.8.4.8.22 0 .4.36.4.8 0 .44.18.8.4.8.22 0 .4.36.4.8 0 .44.18.8.4.8.22 0 .4.36.4.8 0 .44.18.8.4.8.22 0 .4.32.4.712 0 .391.36.971.8 1.288.44.317.8.897.8 1.288 0 .392.18.712.4.712.22 0 .4.36.4.8 0 .44.18.8.4.8.22 0 .4.36.4.8 0 .44.177.8.392.8.216 0 .506.45.644 1s.411 1 .607 1c.197 0 .357.32.357.712 0 .391.36.971.8 1.288.44.317.8.857.8 1.2 0 .343.36.883.8 1.2.44.317.8.857.8 1.2 0 .343.36.883.8 1.2.44.317.8.857.8 1.2 0 .343.36.883.8 1.2.44.317.8.857.8 1.2 0 .343.36.883.8 1.2.44.317.8.825.8 1.128 0 .303.54 1.055 1.2 1.672.66.617 1.2 1.243 1.2 1.392 0 .149.72.962 1.6 1.808.88.846 1.6 1.74 1.6 1.987 0 .247.405.883.9 1.412 1.518 1.624 1.9 2.149 1.9 2.615 0 .247.72 1.14 1.6 1.986.88.846 1.6 1.741 1.6 1.991 0 .433 2.978 3.43 6.369 6.409.877.77 1.602 1.629 1.613 1.909.017.492 4.175 4.891 4.622 4.891.122 0 2.19 1.98 4.596 4.4 2.406 2.42 4.644 4.4 4.974 4.4.33 0 1.229.63 1.999 1.4.77.77 1.6 1.4 1.845 1.4.245 0 1.136.72 1.982 1.6.846.88 1.656 1.6 1.8 1.6.144 0 .954.72 1.8 1.6.846.88 1.782 1.6 2.08 1.6.299 0 .803.36 1.12.8.317.44.857.8 1.2.8.343 0 .883.36 1.2.8.317.44.857.8 1.2.8.343 0 .883.36 1.2.8.317.44.857.8 1.2.8.343 0 .883.36 1.2.8.317.44.897.8 1.288.8.392 0 .712.168.712.373s.405.501.9.657c.495.157 1.191.619 1.547 1.027.356.409.941.743 1.3.743.359 0 .653.18.653.4 0 .22.36.4.8.4.44 0 .8.18.8.4 0 .22.32.4.712.4.391 0 .971.36 1.288.8.317.44.897.8 1.288.8.392 0 .712.18.712.4 0 .22.36.4.8.4.44 0 .8.18.8.4 0 .22.36.4.8.4.44 0 .8.18.8.4 0 .22.32.4.712.4.391 0 .971.36 1.288.8.339.47 1.035.8 1.688.8.612 0 1.112.18 1.112.4 0 .22.27.4.6.4.33 0 .6.18.6.4 0 .22.36.4.8.4.44 0 .8.18.8.4 0 .22.36.4.8.4.44 0 .8.18.8.4 0 .22.36.4.8.4.44 0 .8.18.8.4 0 .22.36.4.8.4.44 0 .8.18.8.4 0 .22.54.4 1.2.4.66 0 1.2.18 1.2.4 0 .22.36.4.8.4.44 0 .8.18.8.4 0 .22.36.4.8.4.44 0 .8.159.8.354 0 .195.99.478 2.2.629 1.21.151 2.2.442 2.2.646 0 .204.36.371.8.371.44 0 .8.18.8.4 0 .22.54.4 1.2.4.66 0 1.2.18 1.2.4 0 .22.54.4 1.2.4.66 0 1.2.18 1.2.4 0 .22.36.4.8.4.44 0 .8.18.8.4 0 .241 1.667.4 4.2.4 2.533 0 4.2-.159 4.2-.4 0-.22.455-.4 1.011-.4 1.009 0 4.589-3.112 4.589-3.989 0-.226.18-.411.4-.411.22 0 .4-.36.4-.8 0-.44.18-.8.4-.8.262 0 .4-7.2.4-20.8v-20.8h-2.4c-1.333 0-2.4.178-2.4.4 0 .22-.99.4-2.2.4-1.21 0-2.2.18-2.2.4 0 .257-3.8.4-10.6.4s-10.6-.143-10.6-.4c0-.229-1.2-.4-2.8-.4-1.6 0-2.8-.171-2.8-.4 0-.222-1.067-.4-2.4-.4s-2.4-.178-2.4-.4c0-.22-.619-.4-1.376-.4-.757 0-1.488-.18-1.624-.4-.136-.22-.687-.4-1.224-.4-.537 0-.976-.18-.976-.4 0-.22-.36-.4-.8-.4-.44 0-.8-.164-.8-.365 0-.201-.72-.486-1.6-.635-.88-.149-1.6-.434-1.6-.635s-.32-.365-.712-.365c-.391 0-.971-.36-1.288-.8-.317-.44-.857-.8-1.2-.8-.343 0-.883-.36-1.2-.8-.317-.44-.852-.808-1.188-.818-.337-.011-1.242-.738-2.012-1.617s-1.985-2.215-2.7-2.968c-.715-.754-1.3-1.607-1.3-1.895 0-.289-.36-.785-.8-1.102-.44-.317-.8-.857-.8-1.2 0-.343-.36-.883-.8-1.2-.44-.317-.8-.897-.8-1.288 0-.392-.18-.712-.4-.712-.22 0-.4-.45-.4-1s-.18-1-.4-1c-.22 0-.4-.36-.4-.8 0-.44-.18-.8-.4-.8-.22 0-.4-.36-.4-.8 0-.44-.18-.8-.4-.8-.22 0-.4-.54-.4-1.2 0-.66-.18-1.2-.4-1.2-.22 0-.4-.36-.4-.8 0-.44-.18-.8-.4-.8-.22 0-.4-.36-.4-.8 0-.44-.18-.8-.4-.8-.22 0-.4-.36-.4-.8 0-.44-.18-.8-.4-.8-.22 0-.4-.36-.4-.8 0-.44-.18-.8-.4-.8-.22 0-.4-.32-.4-.712 0-.391-.36-.971-.8-1.288-.44-.317-.8-.741-.8-.941 0-.201-.331-.656-.736-1.012-.405-.356-.858-1.142-1.008-1.747-.149-.605-.448-1.1-.664-1.1-.215 0-.392-.284-.392-.631 0-.348-.72-1.323-1.6-2.169-.88-.846-1.6-1.736-1.6-1.979 0-.58-3.448-4.021-4.029-4.021-.248 0-.954-.54-1.571-1.2-.617-.66-1.409-1.2-1.76-1.2-.352 0-.64-.18-.64-.4 0-.22-.283-.4-.629-.4-.345 0-.879-.225-1.186-.5-1.195-1.072-1.76-1.5-1.981-1.5-.464 0-3.004-2.789-3.004-3.298 0-.289-.36-.785-.8-1.102-.44-.317-.8-.882-.8-1.255 0-.373-.223-.753-.496-.844-.661-.22.591-1.501 1.467-1.501.346 0 .629-.18.629-.4 0-.22.99-.4 2.2-.4 1.21 0 2.2-.18 2.2-.4 0-.22.36-.4.8-.4.44 0 .8.18.8.4 0 .222 1.067.4 2.4.4s2.4.178 2.4.4c0 .22.54.4 1.2.4.66 0 1.2.18 1.2.4 0 .22.54.4 1.2.4.66 0 1.2.18 1.2.4 0 .22.36.4.8.4.44 0 .8.18.8.4 0 .22.36.4.8.4.44 0 .8.18.8.4 0 .22.294.4.653.4.359 0 .944.316 1.3.703.356.386 1.187.971 1.847 1.3 1.355.674 1.83 1.015 3.201 2.297.529.495 1.156.9 1.391.9.566 0 4.008 3.453 4.008 4.021 0 .243.72 1.133 1.6 1.979.88.846 1.6 1.782 1.6 2.08 0 .299.36.803.8 1.12.44.317.8.831.8 1.141 0 .311.336.856.746 1.212.411.356.873 1.222 1.027 1.923.154.702.806 1.692 1.45 2.2.643.508 1.171 1.151 1.173 1.429.005.668 8.247 8.895 8.911 8.895.284 0 .776.36 1.093.8.317.44.831.8 1.141.8.311 0 .858.315 1.216.7.91.977 2.286 1.7 3.238 1.7.443 0 .805.18.805.4 0 .22.345.4.767.4.421 0 .83.192.909.427.08.24 1.837.527 4.033.658 2.14.128 3.891.386 3.891.574 0 .187 1.35.341 3 .341s3-.153 3-.339c0-.187 2.723-.444 6.052-.572 3.444-.132 6.236-.417 6.48-.661.235-.235 1.022-.428 1.748-.428s1.32-.18 1.32-.4c0-.22.54-.4 1.2-.4.66 0 1.2-.18 1.2-.4 0-.22.36-.4.8-.4.44 0 .8-.18.8-.4 0-.22.458-.4 1.018-.4 1.675 0 2.982-1.657 2.982-3.782 0-1 .18-1.818.4-1.818.22 0 .4-.9.4-2s.18-2 .4-2c.22 0 .4-.36.4-.8 0-.44.18-.8.4-.8.22 0 .4-.45.4-1s.18-1 .4-1c.22 0 .4-.54.4-1.2 0-.66.18-1.2.4-1.2.22 0 .4-.36.4-.8 0-.44.18-.8.4-.8.22 0 .4-.294.4-.653 0-.359.336-.944.746-1.3.411-.356.882-1.263 1.047-2.015.2-.909 1.09-2.143 2.654-3.678 2.437-2.392 3.05-3.954 1.553-3.954-.44 0-.8-.18-.8-.4 0-.226-1.133-.4-2.6-.4s-2.6-.174-2.6-.4c0-.229-1.2-.4-2.8-.4-1.6 0-2.8-.171-2.8-.4 0-.22-.9-.4-2-.4s-2-.18-2-.4c0-.22-.9-.4-2-.4s-2-.18-2-.4c0-.22-.81-.4-1.8-.4s-1.8-.18-1.8-.4c0-.22-.72-.4-1.6-.4-.88 0-1.6-.18-1.6-.4 0-.22-.54-.4-1.2-.4-.66 0-1.2-.18-1.2-.4 0-.22-.54-.4-1.2-.4-.66 0-1.2-.18-1.2-.4 0-.22-.54-.4-1.2-.4-.66 0-1.2-.18-1.2-.4 0-.22-.54-.4-1.2-.4-.66 0-1.2-.18-1.2-.4 0-.22-.36-.4-.8-.4-.44 0-.8-.18-.8-.4 0-.22-.27-.4-.6-.4-.33 0-.6-.18-.6-.4 0-.22-.54-.4-1.2-.4-.66 0-1.2-.18-1.2-.4 0-.22-.36-.4-.8-.4-.44 0-.8-.18-.8-.4 0-.22-.36-.4-.8-.4-.44 0-.8-.18-.8-.4 0-.22-.36-.4-.8-.4-.44 0-.8-.18-.8-.4 0-.22-.36-.4-.8-.4-.44 0-.8-.18-.8-.4 0-.22-.36-.4-.8-.4-.44 0-.8-.18-.8-.4 0-.22-.347-.4-.771-.4-.425 0-1.042-.27-1.372-.6-.33-.33-.843-.6-1.14-.6-.297 0-.8-.36-1.117-.8-.317-.44-.767-.8-1-.8-.233 0-.683-.36-1-.8-.317-.44-.825-.8-1.128-.8-.303 0-1.055-.54-1.672-1.2-.617-.66-1.32-1.2-1.564-1.2-.543 0-11.236-10.639-11.236-11.178 0-.212-.45-.836-1-1.386-.55-.55-1-1.238-1-1.53 0-.291-.36-.789-.8-1.106-.44-.317-.8-.897-.8-1.288 0-.392-.18-.712-.4-.712-.22 0-.4-.32-.4-.712 0-.391-.36-.971-.8-1.288-.44-.317-.8-.897-.8-1.288 0-.392-.18-.712-.4-.712-.22 0-.4-.36-.4-.8 0-.44-.18-.8-.4-.8-.22 0-.4-.36-.4-.8 0-.44-.18-.8-.4-.8-.22 0-.4-.54-.4-1.2 0-.66-.18-1.2-.4-1.2-.22 0-.4-.27-.4-.6 0-.33-.18-.6-.4-.6-.22 0-.4-.36-.4-.8 0-.44-.18-.8-.4-.8-.22 0-.4-.54-.4-1.2 0-.66-.18-1.2-.4-1.2-.22 0-.4-.54-.4-1.2 0-.66-.18-1.2-.4-1.2-.22 0-.4-.54-.4-1.2 0-.66-.18-1.2-.4-1.2-.22 0-.4-.54-.4-1.2 0-.66-.18-1.2-.4-1.2-.22 0-.4-.72-.4-1.6 0-.88-.18-1.6-.4-1.6-.22 0-.4-.45-.4-1s-.18-1-.4-1c-.22 0-.4-.9-.4-2s-.162-2-.36-2c-.198 0-.489-2.253-.648-5.006-.159-2.754-.447-5.104-.64-5.224-.194-.119-.352-1.917-.352-3.994 0-2.251-.162-3.776-.4-3.776-.254 0-.4-3.133-.4-8.6s.146-8.6.4-8.6c.233 0 .4-1.333.4-3.2 0-1.76.154-3.2.342-3.2.189 0 .466-1.485.617-3.3.15-1.815.446-3.36.657-3.433.211-.074.384-.839.384-1.7 0-.862.18-1.567.4-1.567.22 0 .4-.54.4-1.2 0-.66.18-1.2.4-1.2.22 0 .4-.54.4-1.2 0-.66.18-1.2.4-1.2.22 0 .4-.36.4-.8 0-.44.18-.8.4-.8.22 0 .4-.36.4-.8 0-.44.18-.8.4-.8.22 0 .4-.54.4-1.2 0-.66.18-1.2.4-1.2.22 0 .4-.36.4-.8 0-.44.18-.8.4-.8.22 0 .4-.23.4-.512 0-.281.36-.771.8-1.088.44-.317.8-.897.8-1.288 0-.392.18-.712.4-.712.22 0 .4-.36.4-.8 0-.44.18-.8.4-.8.22 0 .4-.288.4-.64 0-.351.54-1.143 1.2-1.76.66-.617 1.2-1.369 1.2-1.672 0-.303.36-.811.8-1.128.44-.317.8-.813.8-1.102 0-.288.585-1.146 1.3-1.904 3.114-3.305 3.1-3.282 3.1-5.38 0-1.108-.18-2.014-.4-2.014-.22 0-.4-.36-.4-.8 0-.44-.161-.8-.358-.8-.197 0-.486-1.44-.642-3.2-.156-1.76-.445-3.2-.642-3.2s-.358-.99-.358-2.2c0-1.21-.18-2.2-.4-2.2-.253 0-.4-2.933-.4-8s.147-8 .4-8c.22 0 .4-.99.4-2.2 0-1.21.157-2.2.348-2.2.192 0 .476-1.62.63-3.6.155-1.98.449-3.6.652-3.6.204 0 .37-.54.37-1.2 0-.66.18-1.2.4-1.2.22 0 .4-.54.4-1.2 0-.66.18-1.2.4-1.2.22 0 .4-.45.4-1s.18-1 .4-1c.22 0 .4-.54.4-1.2 0-.933.178-1.2.8-1.2.44 0 .8-.18.8-.4 0-.24 1.6-.4 4-.4s4 .16 4 .4c0 .22.72.4 1.6.4.88 0 1.6.18 1.6.4 0 .22.619.4 1.376.4.757 0 1.488.18 1.624.4.136.22.687.4 1.224.4.537 0 .976.162.976.361 0 .198 1.08.486 2.4.639 1.32.153 2.4.441 2.4.639 0 .199.36.361.8.361.44 0 .8.18.8.4 0 .22.36.4.8.4.44 0 .8.18.8.4 0 .22.54.4 1.2.4.66 0 1.2.18 1.2.4 0 .22.36.4.8.4.44 0 .8.18.8.4 0 .22.36.4.8.4.44 0 .8.18.8.4 0 .22.45.4 1 .4s1 .18 1 .4c0 .22.36.4.8.4.44 0 .8.18.8.4 0 .22.36.4.8.4.44 0 .8.18.8.4 0 .22.36.4.8.4.44 0 .8.18.8.4 0 .22.36.4.8.4.44 0 .8.18.8.4 0 .22.36.4.8.4.44 0 .8.18.8.4 0 .22.32.4.712.4.391 0 .971.36 1.288.8.317.44.897.8 1.288.8.392 0 .712.18.712.4 0 .22.32.4.712.4.391 0 .971.36 1.288.8.317.44.807.8 1.088.8.282 0 .512.15.512.332 0 .183.495.587 1.1.898.605.31 1.431.926 1.835 1.367.834.911 7.894 1.115 8.187.237.08-.239.749-.434 1.488-.434.738 0 1.454-.18 1.59-.4.136-.22 1.047-.4 2.024-.4.977 0 1.776-.18 1.776-.4 0-.22.9-.4 2-.4s2-.18 2-.4c0-.222 1.067-.4 2.4-.4s2.4-.178 2.4-.4c0-.22.99-.4 2.2-.4 1.21 0 2.2-.18 2.2-.4 0-.24 1.6-.4 4-.4s4-.16 4-.4c0-.251 2.467-.4 6.6-.4 4.133 0 6.6-.149 6.6-.4 0-.237 1.467-.4 3.6-.4s3.6.163 3.6.4c0 .251 2.467.4 6.6.4 4.133 0 6.6.149 6.6.4 0 .24 1.6.4 4 .4s4 .16 4 .4c0 .22.99.4 2.2.4 1.21 0 2.2.18 2.2.4 0 .222 1.067.4 2.4.4s2.4.178 2.4.4c0 .22.9.4 2 .4s2 .18 2 .4c0 .22.9.4 2 .4s2 .18 2 .4c0 .22.594.4 1.32.4.726 0 1.522.202 1.769.449.929.929 7.148.659 8.023-.349.43-.495 1.036-.9 1.347-.9.31 0 .824-.36 1.141-.8.317-.44.857-.8 1.2-.8.343 0 .883-.36 1.2-.8.317-.44.807-.8 1.088-.8.282 0 .512-.18.512-.4 0-.22.36-.4.8-.4.44 0 .8-.18.8-.4 0-.22.32-.4.712-.4.391 0 .971-.36 1.288-.8.317-.44.897-.8 1.288-.8.392 0 .712-.18.712-.4 0-.22.36-.4.8-.4.44 0 .8-.18.8-.4 0-.22.36-.4.8-.4.44 0 .8-.18.8-.4 0-.22.36-.4.8-.4.44 0 .8-.18.8-.4 0-.22.36-.4.8-.4.44 0 .8-.18.8-.4 0-.22.36-.4.8-.4.44 0 .8-.18.8-.4 0-.22.36-.4.8-.4.44 0 .8-.18.8-.4 0-.22.45-.4 1-.4s1-.18 1-.4c0-.22.36-.4.8-.4.44 0 .8-.18.8-.4 0-.22.36-.4.8-.4.44 0 .8-.18.8-.4 0-.22.54-.4 1.2-.4.66 0 1.2-.174 1.2-.386 0-.213.9-.506 2-.652 1.1-.146 2-.422 2-.614 0-.191.54-.348 1.2-.348.66 0 1.2-.18 1.2-.4 0-.22.54-.4 1.2-.4.66 0 1.2-.18 1.2-.4 0-.22.81-.4 1.8-.4s1.8-.18 1.8-.4c0-.241 1.673-.4 4.218-.4 4.56 0 6.182.73 6.182 2.782 0 .45.18.818.4.818.22 0 .4.54.4 1.2 0 .66.18 1.2.4 1.2.22 0 .4.54.4 1.2 0 .66.18 1.2.4 1.2.22 0 .4.54.4 1.2 0 .66.18 1.2.4 1.2.22 0 .4.72.4 1.6 0 .88.18 1.6.4 1.6.22 0 .4.885.4 1.967 0 1.217.19 2.03.5 2.133.385.128.5 2.869.5 11.9s-.115 11.772-.5 11.9c-.287.095-.5.836-.5 1.733 0 .862-.18 1.567-.4 1.567-.22 0-.4.72-.4 1.6 0 .88-.18 1.6-.4 1.6-.22 0-.4.36-.4.8 0 .44-.18.8-.4.8-1.286 0-.378 4.044 1.3 5.787 2.341 2.432 2.7 2.899 2.7 3.508 0 .291.36.788.8 1.105.44.317.8.857.8 1.2 0 .343.36.883.8 1.2.44.317.8.857.8 1.2 0 .343.36.883.8 1.2.44.317.8.897.8 1.288 0 .392.18.712.4.712.22 0 .4.32.4.712 0 .391.36.971.8 1.288.44.317.8.807.8 1.088 0 .282.18.512.4.512.22 0 .4.36.4.8 0 .44.18.8.4.8.22 0 .4.54.4 1.2 0 .66.18 1.2.4 1.2.22 0 .4.36.4.8 0 .44.18.8.4.8.22 0 .4.36.4.8 0 .44.18.8.4.8.22 0 .4.54.4 1.2 0 .66.18 1.2.4 1.2.22 0 .4.54.4 1.2 0 .66.18 1.2.4 1.2.22 0 .4.72.4 1.6 0 .88.18 1.6.4 1.6.22 0 .4.63.4 1.4 0 .77.18 1.4.4 1.4.22 0 .4.9.4 2s.18 2 .4 2c.237 0 .4 1.467.4 3.6s.163 3.6.4 3.6c.254 0 .4 3 .4 8.2 0 5.2-.146 8.2-.4 8.2-.239 0-.4 1.533-.4 3.8s-.161 3.8-.4 3.8c-.233 0-.4 1.333-.4 3.2 0 1.867-.167 3.2-.4 3.2-.22 0-.4.9-.4 2s-.18 2-.4 2c-.22 0-.4.9-.4 2s-.18 2-.4 2c-.22 0-.4.63-.4 1.4 0 .77-.18 1.4-.4 1.4-.22 0-.4.54-.4 1.2 0 .66-.18 1.2-.4 1.2-.22 0-.4.72-.4 1.6 0 .88-.18 1.6-.4 1.6-.22 0-.4.36-.4.8 0 .44-.18.8-.4.8-.22 0-.4.54-.4 1.2 0 .66-.18 1.2-.4 1.2-.22 0-.4.54-.4 1.2 0 .66-.18 1.2-.4 1.2-.22 0-.4.36-.4.8 0 .44-.18.8-.4.8-.22 0-.4.45-.4 1s-.18 1-.4 1c-.22 0-.4.36-.4.8 0 .44-.18.8-.4.8-.22 0-.4.36-.4.8 0 .44-.18.8-.4.8-.22 0-.4.36-.4.8 0 .44-.18.8-.4.8-.22 0-.4.32-.4.712 0 .391-.36.971-.8 1.288-.44.317-.8.897-.8 1.288 0 .392-.18.712-.4.712-.22 0-.4.32-.4.712 0 .391-.36.971-.8 1.288-.44.317-.8.889-.8 1.27 0 .382-.45 1.144-1 1.694s-1 1.099-1 1.221c0 .43-10.798 11.015-11.236 11.015-.244 0-.947.54-1.564 1.2-.617.66-1.279 1.2-1.472 1.2-.193 0-.611.36-.928.8-.317.44-.897.8-1.288.8-.392 0-.712.18-.712.4 0 .22-.32.4-.712.4-.391 0-.963.35-1.271.777-.308.427-1.248.893-2.089 1.035-.84.142-1.528.422-1.528.623s-.32.365-.712.365c-.391 0-.971.36-1.288.8-.317.44-.897.8-1.288.8-.392 0-.712.18-.712.4 0 .22-.36.4-.8.4-.44 0-.8.18-.8.4 0 .22-.54.4-1.2.4-.66 0-1.2.18-1.2.4 0 .22-.27.4-.6.4-.33 0-.6.18-.6.4 0 .22-.36.4-.8.4-.44 0-.8.18-.8.4 0 .22-.54.4-1.2.4-.66 0-1.2.18-1.2.4 0 .22-.36.4-.8.4-.44 0-.8.18-.8.4 0 .22-.54.4-1.2.4-.66 0-1.2.18-1.2.4 0 .22-.54.4-1.2.4-.66 0-1.2.18-1.2.4 0 .22-.72.4-1.6.4-.88 0-1.6.18-1.6.4 0 .22-.63.4-1.4.4-.77 0-1.4.18-1.4.4 0 .22-.72.4-1.6.4-.88 0-1.6.18-1.6.4 0 .22-.9.4-2 .4s-2 .18-2 .4c0 .22-.9.4-2 .4s-2 .18-2 .4c0 .226-1.133.4-2.6.4s-2.6.174-2.6.4c0 .229-1.2.4-2.8.4-1.6 0-2.8.171-2.8.4 0 .22-.54.4-1.2.4-1.714 0-1.512.538 1.2 3.2 1.32 1.296 2.4 2.596 2.4 2.89 0 .293.36.793.8 1.11.44.317.8.857.8 1.2 0 .343.35.875.777 1.183.427.308.893 1.248 1.035 2.089.142.84.422 1.528.623 1.528s.365.439.365.976c0 .537.18 1.088.4 1.224.22.136.4.687.4 1.224 0 .537.18.976.4.976.22 0 .4.54.4 1.2 0 .66.18 1.2.4 1.2.22 0 .4.72.4 1.6 0 .88.18 1.6.4 1.6.229 0 .4 1.2.4 2.8 0 1.6.171 2.8.4 2.8.263 0 .4 11.333.4 33.2 0 21.867.137 33.2.4 33.2.22 0 .4.54.4 1.2 0 .66.18 1.2.4 1.2.22 0 .4.185.4.411 0 .877 3.58 3.989 4.589 3.989.556 0 1.011.18 1.011.4 0 .241 1.667.4 4.2.4 2.533 0 4.2-.159 4.2-.4 0-.22.36-.4.8-.4.44 0 .8-.18.8-.4 0-.22.54-.4 1.2-.4.66 0 1.2-.18 1.2-.4 0-.22.54-.4 1.2-.4.66 0 1.2-.18 1.2-.4 0-.22.36-.4.8-.4.44 0 .8-.159.8-.354 0-.195.99-.478 2.2-.629 1.21-.151 2.2-.442 2.2-.646 0-.204.36-.371.8-.371.44 0 .8-.18.8-.4 0-.22.36-.4.8-.4.44 0 .8-.18.8-.4 0-.22.54-.4 1.2-.4.66 0 1.2-.18 1.2-.4 0-.22.36-.4.8-.4.44 0 .8-.18.8-.4 0-.22.36-.4.8-.4.44 0 .8-.18.8-.4 0-.22.36-.4.8-.4.44 0 .8-.18.8-.4 0-.22.36-.4.8-.4.44 0 .8-.18.8-.4 0-.22.36-.4.8-.4.44 0 .8-.18.8-.4 0-.22.41-.4.912-.4.501 0 1.171-.36 1.488-.8.317-.44.897-.8 1.288-.8.392 0 .712-.18.712-.4 0-.22.36-.4.8-.4.44 0 .8-.18.8-.4 0-.22.32-.4.712-.4.391 0 .971-.36 1.288-.8.317-.44.897-.8 1.288-.8.392 0 .712-.18.712-.4 0-.22.36-.4.8-.4.44 0 .8-.18.8-.4 0-.22.36-.4.8-.4.44 0 .8-.18.8-.4 0-.22.32-.4.712-.4.391 0 .971-.36 1.288-.8.317-.44.875-.8 1.239-.8.365 0 .887-.27 1.161-.6.274-.33.706-.6.961-.6.254 0 .722-.36 1.039-.8.317-.44.857-.8 1.2-.8.343 0 .883-.36 1.2-.8.317-.44.857-.8 1.2-.8.343 0 .883-.36 1.2-.8.317-.44.857-.8 1.2-.8.343 0 .883-.36 1.2-.8.317-.44.821-.8 1.12-.8.298 0 1.234-.72 2.08-1.6.846-.88 1.749-1.6 2.008-1.6.535 0 2.792-2.297 2.792-2.842 0-.197.276-.358.613-.358.338 0 1.244-.63 2.014-1.4.77-.77 1.669-1.4 1.999-1.4.33 0 2.568-1.98 4.974-4.4 2.406-2.42 4.61-4.4 4.899-4.4.288 0 .789-.386 1.113-.858.323-.472 1.173-1.456 1.888-2.187.715-.73 1.308-1.559 1.318-1.842.011-.282.736-1.143 1.613-1.913 3.391-2.979 6.369-5.976 6.369-6.409 0-.25.72-1.145 1.6-1.991.88-.846 1.6-1.746 1.6-2s.72-1.154 1.6-2c.88-.846 1.6-1.815 1.6-2.155 0-.34.63-1.248 1.4-2.018.77-.77 1.4-1.514 1.4-1.653s.54-.757 1.2-1.374c.66-.617 1.2-1.369 1.2-1.672 0-.303.36-.811.8-1.128.44-.317.8-.857.8-1.2 0-.343.36-.883.8-1.2.44-.317.8-.857.8-1.2 0-.343.36-.883.8-1.2.44-.317.8-.857.8-1.2 0-.343.36-.883.8-1.2.44-.317.8-.857.8-1.2 0-.343.36-.883.8-1.2.44-.317.8-.897.8-1.288 0-.392.18-.712.4-.712.22 0 .4-.242.4-.538 0-.296.36-.864.8-1.262.44-.398.8-.966.8-1.262 0-.296.164-.538.365-.538.201 0 .481-.688.623-1.528.142-.841.608-1.781 1.035-2.089.427-.308.777-.88.777-1.271 0-.392.18-.712.4-.712.22 0 .4-.36.4-.8 0-.44.18-.8.4-.8.22 0 .4-.36.4-.8 0-.44.18-.8.4-.8.22 0 .4-.36.4-.8 0-.44.18-.8.4-.8.22 0 .4-.36.4-.8 0-.44.18-.8.4-.8.22 0 .4-.36.4-.8 0-.44.18-.8.4-.8.22 0 .4-.27.4-.6 0-.33.18-.6.4-.6.22 0 .4-.36.4-.8 0-.44.18-.8.4-.8.22 0 .4-.54.4-1.2 0-.66.18-1.2.4-1.2.22 0 .4-.36.4-.8 0-.44.18-.8.4-.8.22 0 .4-.36.4-.8 0-.44.18-.8.4-.8.22 0 .4-.36.4-.8 0-.44.18-.8.4-.8.22 0 .4-.54.4-1.2 0-.66.18-1.2.4-1.2.22 0 .4-.36.4-.8 0-.44.18-.8.4-.8.22 0 .4-.54.4-1.2 0-.66.18-1.2.4-1.2.22 0 .4-.45.4-1s.18-1 .4-1c.22 0 .4-.54.4-1.2 0-.66.18-1.2.4-1.2.22 0 .4-.36.4-.8 0-.44.169-.8.376-.8.206 0 .5-1.26.651-2.8.152-1.54.433-2.8.625-2.8.191 0 .348-.54.348-1.2 0-.66.18-1.2.4-1.2.22 0 .4-.63.4-1.4 0-.77.18-1.4.4-1.4.22 0 .4-.72.4-1.6 0-.88.18-1.6.4-1.6.22 0 .4-.54.4-1.2 0-.66.18-1.2.4-1.2.22 0 .4-.9.4-2s.18-2 .4-2c.22 0 .4-.9.4-2s.18-2 .4-2c.22 0 .4-.81.4-1.8s.18-1.8.4-1.8c.222 0 .4-1.067.4-2.4s.178-2.4.4-2.4c.237 0 .4-1.456.4-3.567 0-2.497.15-3.616.5-3.733.732-.244.732-49.556 0-49.8-.331-.11-.5-1.036-.5-2.733 0-1.445-.175-2.567-.4-2.567-.222 0-.4-1.067-.4-2.4s-.178-2.4-.4-2.4c-.222 0-.4-1.067-.4-2.4s-.178-2.4-.4-2.4c-.22 0-.4-.72-.4-1.6 0-.88-.18-1.6-.4-1.6-.22 0-.4-.81-.4-1.8s-.18-1.8-.4-1.8c-.22 0-.4-.72-.4-1.6 0-.88-.18-1.6-.4-1.6-.22 0-.4-.72-.4-1.6 0-.88-.18-1.6-.4-1.6-.22 0-.4-.54-.4-1.2 0-.66-.18-1.2-.4-1.2-.22 0-.4-.54-.4-1.2 0-.66-.159-1.2-.353-1.2-.195 0-.479-1.17-.632-2.6-.153-1.43-.444-2.6-.647-2.6-.202 0-.368-.54-.368-1.2 0-.66-.18-1.2-.4-1.2-.22 0-.4-.54-.4-1.2 0-.66-.18-1.2-.4-1.2-.22 0-.4-.36-.4-.8 0-.44-.18-.8-.4-.8-.22 0-.4-.54-.4-1.2 0-.66-.18-1.2-.4-1.2-.22 0-.4-.54-.4-1.2 0-.66-.18-1.2-.4-1.2-.22 0-.4-.36-.4-.8 0-.44-.18-.8-.4-.8-.22 0-.4-.45-.4-1s-.18-1-.4-1c-.22 0-.4-.36-.4-.8 0-.44-.18-.8-.4-.8-.22 0-.4-.36-.4-.8 0-.44-.18-.8-.4-.8-.22 0-.4-.36-.4-.8 0-.44-.18-.8-.4-.8-.22 0-.4-.36-.4-.8 0-.44-.18-.8-.4-.8-.22 0-.4-.36-.4-.8 0-.44-.18-.8-.4-.8-.22 0-.4-.54-.4-1.2 0-.66-.18-1.2-.4-1.2-.22 0-.4-.36-.4-.8 0-.44-.18-.8-.4-.8-.22 0-.4-.32-.4-.712 0-.391-.36-.971-.8-1.288-.44-.317-.8-.897-.8-1.288 0-.392-.18-.712-.4-.712-.22 0-.4-.27-.4-.6 0-.33-.18-.6-.4-.6-.22 0-.4-.36-.4-.8 0-.44-.164-.8-.365-.8-.201 0-.481-.688-.623-1.528-.142-.841-.608-1.781-1.035-2.089-.427-.308-.777-.88-.777-1.271 0-.392-.18-.712-.4-.712-.22 0-.4-.32-.4-.712 0-.391-.36-.971-.8-1.288-.44-.317-.8-.857-.8-1.2 0-.343-.36-.883-.8-1.2-.44-.317-.8-.897-.8-1.288 0-.392-.18-.712-.4-.712-.22 0-.4-.348-.4-.773 0-.425-.36-.887-.8-1.027-.44-.14-.8-.53-.8-.866 0-.337-.54-1.117-1.2-1.734-.66-.617-1.2-1.369-1.2-1.672 0-.303-.36-.811-.8-1.128-.44-.317-.8-.825-.8-1.128 0-.303-.54-1.055-1.2-1.672-.66-.617-1.2-1.327-1.2-1.579 0-.251-.45-.907-1-1.457s-1-1.269-1-1.598c0-.329-.72-1.283-1.6-2.12-.88-.837-1.6-1.652-1.6-1.81 0-.158-.9-1.165-2-2.236-1.1-1.071-2-2.143-2-2.381 0-.577-18.236-18.819-18.813-18.819-.247 0-1.141-.72-1.987-1.6-.846-.88-1.746-1.6-2-1.6-.539 0-3.6-3.089-3.6-3.633 0-.202-.334-.367-.742-.367s-1.173-.513-1.7-1.139c-.527-.627-1.453-1.26-2.058-1.408-.605-.147-1.1-.445-1.1-.661 0-.215-.288-.392-.64-.392-.351 0-1.143-.54-1.76-1.2-.617-.66-1.337-1.2-1.6-1.2-.263 0-.983-.54-1.6-1.2-.617-.66-1.409-1.2-1.76-1.2-.352 0-.64-.18-.64-.4 0-.22-.32-.4-.712-.4-.391 0-.971-.36-1.288-.8-.317-.44-.767-.8-1-.8-.233 0-.683-.36-1-.8-.317-.44-.897-.8-1.288-.8-.392 0-.712-.18-.712-.4 0-.22-.32-.4-.712-.4-.391 0-.971-.36-1.288-.8-.317-.44-.897-.8-1.288-.8-.392 0-.712-.18-.712-.4 0-.22-.32-.4-.712-.4-.391 0-.971-.36-1.288-.8-.317-.44-.897-.8-1.288-.8-.392 0-.712-.18-.712-.4 0-.22-.36-.4-.8-.4-.44 0-.8-.164-.8-.365 0-.201-.72-.486-1.6-.635-.88-.149-1.6-.434-1.6-.635s-.27-.365-.6-.365c-.33 0-.6-.18-.6-.4 0-.22-.36-.4-.8-.4-.44 0-.8-.18-.8-.4 0-.22-.36-.4-.8-.4-.44 0-.8-.18-.8-.4 0-.22-.36-.4-.8-.4-.44 0-.8-.18-.8-.4 0-.22-.36-.4-.8-.4-.44 0-.8-.18-.8-.4 0-.22-.36-.4-.8-.4-.44 0-.8-.18-.8-.4 0-.22-.36-.4-.8-.4-.44 0-.8-.18-.8-.4 0-.22-.36-.4-.8-.4-.44 0-.8-.18-.8-.4 0-.22-.54-.4-1.2-.4-.66 0-1.2-.18-1.2-.4 0-.22-.36-.4-.8-.4-.44 0-.8-.18-.8-.4 0-.22-.45-.4-1-.4s-1-.18-1-.4c0-.22-.36-.4-.8-.4-.44 0-.8-.18-.8-.4 0-.22-.54-.4-1.2-.4-.66 0-1.2-.18-1.2-.4 0-.22-.54-.4-1.2-.4-.66 0-1.2-.18-1.2-.4 0-.22-.36-.4-.8-.4-.44 0-.8-.18-.8-.4 0-.22-.72-.4-1.6-.4-.88 0-1.6-.18-1.6-.4 0-.22-.54-.4-1.2-.4-.66 0-1.2-.18-1.2-.4 0-.22-.439-.4-.976-.4-.537 0-1.088-.18-1.224-.4-.136-.22-.687-.4-1.224-.4-.537 0-.976-.18-.976-.4 0-.22-.72-.4-1.6-.4-.88 0-1.6-.161-1.6-.358 0-.197-1.44-.486-3.2-.642-1.76-.156-3.2-.445-3.2-.642s-.9-.358-2-.358-2-.18-2-.4c0-.22-.63-.4-1.4-.4-.77 0-1.4-.18-1.4-.4 0-.222-1.067-.4-2.4-.4s-2.4-.178-2.4-.4c0-.229-1.2-.4-2.8-.4-1.6 0-2.8-.171-2.8-.4 0-.231-1.267-.4-3-.4s-3-.169-3-.4c0-.24-1.6-.4-4-.4s-4-.16-4-.4c0-.26-5.333-.4-15.2-.4-9.867 0-15.2.14-15.2.4m70.9 264.198c-.848.963-.155 2.602 1.1 2.602.251 0 .714-.257 1.029-.571.314-.315.571-.778.571-1.029 0-1.313-1.829-1.991-2.7-1.002" fill="#fff" fill-rule="evenodd"/></svg>