<svg width="400" height="400" xmlns="http://www.w3.org/2000/svg">
    <path d="M191.091.109l-4.182.262C94.708 6.107 17.737 75.752 2.639 167.103 1.625 173.239.117 186.541.403 186.827c.088.088 107.401 44.264 107.528 44.264.05 0 .985-.53 2.077-1.179 8.47-5.027 17.275-7.562 27.307-7.86l3.587-.107 24.413-35.461 24.412-35.462.121-3.557c1.724-50.685 51.521-85.566 99.557-69.736 43.731 14.412 64.685 64.528 44.251 105.835-12.631 25.531-37.384 41.329-66.383 42.366l-3.546.127-34.909 24.949-34.909 24.95-.117 3.34c-1.303 37.329-38.105 62.714-73.386 50.62-17.19-5.892-30.759-20.468-35.361-37.982-.339-1.29-.731-2.401-.875-2.481-.144-.08-17.156-7.115-37.806-15.635S8.757 258.29 8.682 258.244c-.074-.045-.064.106.024.337.088.23.164.46.17.51.012.114-.047-.068 1.421 4.364.679 2.05 1.248 3.788 1.264 3.863.016.075.05.177.075.227.025.05.063.153.084.228.021.075.141.382.268.682.126.3.25.627.275.727.025.1.147.427.273.727.125.3.248.627.272.727.025.1.148.428.273.728.125.3.248.627.273.727.117.466.601 1.647.951 2.318.144.275.214.5.156.5-.058 0 .028.205.192.455s.246.454.182.454.005.184.152.409c.147.225.27.472.273.548.003.076.131.382.285.68.155.297.277.584.273.636-.004.052.119.338.273.636.154.298.277.585.273.637-.004.052.118.338.272.636.154.298.27.588.257.645-.023.1.253.69 1.331 2.851.286.572.512 1.085.503 1.14-.022.131 4.502 9.208 4.729 9.49.096.119.36.61.587 1.091.226.48.509.977.628 1.103s.319.515.445.864c.127.349.29.634.363.634.074 0 .237.287.364.637.126.35.29.636.364.636.073 0 .237.286.363.636.127.35.286.637.354.637.067 0 .232.266.364.591.133.325.348.699.477.831s.235.357.235.5c0 .143.076.259.17.259.093 0 .226.181.296.401.07.22.239.513.376.649.137.137.249.366.249.509 0 .143.069.26.153.26.084 0 .309.304.5.676.191.373.493.842.672 1.042.179.201.372.551.429.778.057.227.176.413.266.413.089 0 .162.116.162.257 0 .142.071.285.159.318.212.081 1.841 2.616 1.841 2.866 0 .107.082.195.182.195.1 0 .181.116.181.258 0 .141.07.285.154.318.229.09 1.483 1.89 1.483 2.128 0 .113.082.205.182.205.1 0 .181.086.181.19 0 .104.205.41.455.68.25.27.454.556.454.636 0 .081.205.367.455.637.25.269.455.556.455.636 0 .08.204.367.454.636.25.27.455.585.455.7 0 .116.122.257.272.315.15.057.273.221.273.363 0 .143.123.306.273.364.15.057.273.23.273.383s.084.278.187.278.238.131.299.29c.061.16.345.546.631.859.285.313.519.628.519.7 0 .072.286.442.635.823.35.381.636.794.637.919 0 .125.065.228.144.228.078 0 .405.347.726.772l.903 1.193c.175.231.503.594.728.806.225.212.409.448.409.526 0 .077.184.339.409.581.412.444 1.066 1.199 2.014 2.328.283.336.79.924 1.125 1.305.336.381.907 1.035 1.27 1.454 2.74 3.163 10.686 11.33 13.831 14.216.981.9 1.956 1.8 2.168 2 2.08 1.963 9.037 7.737 12.637 10.488 42.011 32.107 95.465 46.225 148.181 39.138 38.181-5.133 73.786-21.127 103.347-46.424 1.591-1.361 3.151-2.72 3.468-3.02.317-.3 1.377-1.282 2.356-2.182 2.005-1.844 8.214-8.069 10.285-10.313 2.162-2.342 2.84-3.089 3.545-3.903.363-.419.932-1.073 1.266-1.454a158.022 158.022 0 0 0 2.22-2.58c.283-.337.698-.811.923-1.053.225-.242.409-.514.409-.604 0-.089.15-.27.332-.401.183-.13.408-.371.5-.536.175-.309 1.204-1.585 1.759-2.179.175-.187.319-.402.319-.477.001-.075.275-.434.61-.799.335-.364.659-.794.721-.954.061-.161.196-.292.299-.292.103 0 .188-.125.188-.279 0-.153.122-.325.272-.383.15-.057.273-.2.273-.317 0-.117.234-.469.519-.781.286-.313.57-.7.631-.859.061-.16.196-.29.299-.29.103 0 .187-.103.187-.229s.205-.45.455-.72c.25-.269.454-.571.454-.671 0-.099.103-.246.228-.326.125-.08.338-.359.472-.62.135-.262.441-.688.682-.947.24-.259.437-.526.437-.594 0-.178 1.301-1.973 1.482-2.045.085-.033.154-.176.154-.318 0-.142.082-.257.182-.257.1 0 .182-.123.182-.273 0-.15.081-.273.181-.273.1 0 .182-.123.182-.273 0-.15.082-.272.182-.272.1 0 .182-.086.182-.191 0-.247 1.271-2.245 1.478-2.325.087-.033.158-.176.158-.318 0-.141.073-.257.162-.257.09 0 .209-.186.266-.413.057-.227.25-.577.429-.778.179-.2.481-.669.672-1.042.191-.372.416-.676.5-.676.084 0 .153-.117.153-.26 0-.143.112-.372.249-.509a1.89 1.89 0 0 0 .376-.649c.07-.22.203-.401.296-.401.094 0 .17-.116.17-.259 0-.143.106-.368.235-.5s.344-.506.477-.831c.132-.325.304-.591.381-.591.077 0 .192-.205.254-.455.063-.25.2-.454.304-.454.104 0 .138-.082.076-.182-.062-.1-.042-.182.044-.182s.26-.286.386-.636c.127-.35.29-.637.364-.637.073 0 .236-.285.363-.634.126-.349.326-.738.445-.864s.402-.623.628-1.103c.227-.481.492-.972.589-1.091.239-.294 4.786-9.43 4.837-9.72.022-.127.293-.679.603-1.227.309-.549.519-.997.466-.997-.052 0 .082-.348.298-.773.217-.425.381-.794.364-.82-.017-.026.096-.291.25-.589s.284-.604.29-.68c.006-.076.158-.425.338-.775.349-.678.768-1.668.77-1.818.001-.05.091-.254.202-.454.11-.2.218-.446.24-.546.034-.157.243-.677 1.208-3a7.6 7.6 0 0 0 .238-.636c.071-.261 1.095-2.99 1.365-3.636.125-.3.244-.607.265-.682.021-.075.059-.178.084-.228a1.16 1.16 0 0 0 .075-.227c.115-.518.733-2.177.88-2.363.099-.125.119-.228.045-.228-.075 0-.034-.122.091-.272.124-.15.165-.273.09-.273-.074 0-.033-.123.091-.273.125-.15.166-.273.091-.273-.074 0-.033-.122.091-.272.125-.15.166-.273.091-.273-.074 0-.05-.102.053-.227.104-.125.196-.289.204-.364.009-.075.022-.157.03-.182.007-.025.042-.197.077-.382.035-.186.244-.881.465-1.546.452-1.362.564-1.733.544-1.8-.007-.025.107-.334.253-.685.147-.351.271-.678.275-.726a.884.884 0 0 1 .022-.134c.021-.069.162-.653.219-.909.027-.125.114-.329.192-.454s.098-.227.045-.227c-.053 0-.01-.225.096-.5.197-.51.294-.872.449-1.682.048-.25.138-.578.2-.728.153-.368.202-.543.331-1.181.061-.3.396-1.65.745-3 .348-1.35.676-2.7.728-3 .053-.3.184-.873.293-1.273.109-.4.22-.891.247-1.091.027-.2.14-.732.251-1.182.112-.45.241-1.023.288-1.273.047-.25.121-.618.166-.818.151-.677.259-1.27.366-2 .059-.4.153-.874.208-1.053.055-.179.137-.629.182-1 .044-.371.126-.82.181-.997.055-.178.138-.587.186-.909.047-.323.116-.75.152-.95.036-.2.116-.773.178-1.273.061-.5.163-1.154.226-1.454.064-.3.133-.709.156-.909.189-1.719.282-2.434.37-2.858.057-.271.132-.762.168-1.091.036-.328.114-1.006.172-1.506.37-3.171.533-4.826.75-7.636l.169-2.182c.285-3.642.356-6.595.359-14.818.004-9.489-.065-11.069-.827-18.9-8.937-91.878-80.585-166.138-172.169-178.448C217.507.479 212.578.159 201.545.098c-5.2-.029-9.904-.024-10.454.011m70.744 99.165c-43.252 3.621-62.499 55.929-31.85 86.557 27.873 27.853 75.507 14.437 84.937-23.922 8.161-33.2-19.191-65.472-53.087-62.635m7.646 12.734c31.75 3.194 45.616 42.126 23.044 64.698-21.741 21.741-58.955 9.785-64.165-20.615-4.194-24.472 16.418-46.569 41.121-44.083M135.909 234.665c-4.431.359-12.454 2.15-12.454 2.781 0 .074 5.788 2.528 12.863 5.452 7.075 2.925 13.678 5.726 14.673 6.225 15.438 7.742 21.628 26.662 13.822 42.241-6.301 12.574-20.454 19.451-34.244 16.641-2.865-.584-4.266-1.113-17.748-6.704-6.999-2.901-12.752-5.249-12.785-5.216-.212.213 2.408 4.708 4.007 6.873 21.213 28.737 66.581 20.213 75.758-14.234 7.537-28.288-15.27-56.377-43.892-54.059" fill="#fff" fill-rule="evenodd"/>
</svg>